<svg width="500" height="450" viewBox="0 0 500 450" fill="none" xmlns="http://www.w3.org/2000/svg">
<rect width="500" height="450" fill="white"/>
<rect x="53" y="64" width="70" height="70" rx="10" fill="#C4C4C4" fill-opacity="0.5"/>
<path d="M53 158.5C53 157.119 54.1193 156 55.5 156H163.5C164.881 156 166 157.119 166 158.5V158.5C166 159.881 164.881 161 163.5 161H55.5C54.1193 161 53 159.881 53 158.5V158.5Z" fill="#A49D9D"/>
<path d="M53 173.5C53 172.119 54.1193 171 55.5 171H111.346C112.727 171 113.846 172.119 113.846 173.5V173.5C113.846 174.881 112.727 176 111.346 176H55.5C54.1193 176 53 174.881 53 173.5V173.5Z" fill="#A49D9D"/>
<path d="M53 188.5C53 187.119 54.1193 186 55.5 186H146.115C147.496 186 148.615 187.119 148.615 188.5V188.5C148.615 189.881 147.496 191 146.115 191H55.5C54.1193 191 53 189.881 53 188.5V188.5Z" fill="#A49D9D"/>
<path d="M53 203.5C53 202.119 54.1193 201 55.5 201H153.938C155.319 201 156.438 202.119 156.438 203.5V203.5C156.438 204.881 155.319 206 153.938 206H55.5C54.1193 206 53 204.881 53 203.5V203.5Z" fill="#A49D9D"/>
<rect x="192" y="64" width="70" height="70" rx="10" fill="#C4C4C4" fill-opacity="0.5"/>
<path d="M192 158.5C192 157.119 193.119 156 194.5 156H302.5C303.881 156 305 157.119 305 158.5V158.5C305 159.881 303.881 161 302.5 161H194.5C193.119 161 192 159.881 192 158.5V158.5Z" fill="#A49D9D"/>
<path d="M192 173.5C192 172.119 193.119 171 194.5 171H250.346C251.727 171 252.846 172.119 252.846 173.5V173.5C252.846 174.881 251.727 176 250.346 176H194.5C193.119 176 192 174.881 192 173.5V173.5Z" fill="#A49D9D"/>
<path d="M192 188.5C192 187.119 193.119 186 194.5 186H285.115C286.496 186 287.615 187.119 287.615 188.5V188.5C287.615 189.881 286.496 191 285.115 191H194.5C193.119 191 192 189.881 192 188.5V188.5Z" fill="#A49D9D"/>
<path d="M192 203.5C192 202.119 193.119 201 194.5 201H292.938C294.319 201 295.438 202.119 295.438 203.5V203.5C295.438 204.881 294.319 206 292.938 206H194.5C193.119 206 192 204.881 192 203.5V203.5Z" fill="#A49D9D"/>
<rect x="334" y="64" width="70" height="70" rx="10" fill="#C4C4C4" fill-opacity="0.5"/>
<path d="M334 158.5C334 157.119 335.119 156 336.5 156H444.5C445.881 156 447 157.119 447 158.5V158.5C447 159.881 445.881 161 444.5 161H336.5C335.119 161 334 159.881 334 158.5V158.5Z" fill="#A49D9D"/>
<path d="M334 173.5C334 172.119 335.119 171 336.5 171H392.346C393.727 171 394.846 172.119 394.846 173.5V173.5C394.846 174.881 393.727 176 392.346 176H336.5C335.119 176 334 174.881 334 173.5V173.5Z" fill="#A49D9D"/>
<path d="M334 188.5C334 187.119 335.119 186 336.5 186H427.115C428.496 186 429.615 187.119 429.615 188.5V188.5C429.615 189.881 428.496 191 427.115 191H336.5C335.119 191 334 189.881 334 188.5V188.5Z" fill="#A49D9D"/>
<path d="M334 203.5C334 202.119 335.119 201 336.5 201H434.938C436.319 201 437.438 202.119 437.438 203.5V203.5C437.438 204.881 436.319 206 434.938 206H336.5C335.119 206 334 204.881 334 203.5V203.5Z" fill="#A49D9D"/>
<rect x="334.5" y="256.5" width="112" height="22" rx="3.5" stroke="#CBCBCB"/>
<path d="M354.5 269.293C354.394 270.195 354.061 270.893 353.498 271.385C352.939 271.873 352.195 272.117 351.266 272.117C350.258 272.117 349.449 271.756 348.84 271.033C348.234 270.311 347.932 269.344 347.932 268.133V267.312C347.932 266.52 348.072 265.822 348.353 265.221C348.639 264.619 349.041 264.158 349.561 263.838C350.08 263.514 350.682 263.352 351.365 263.352C352.271 263.352 352.998 263.605 353.545 264.113C354.092 264.617 354.41 265.316 354.5 266.211H353.369C353.271 265.531 353.059 265.039 352.73 264.734C352.406 264.43 351.951 264.277 351.365 264.277C350.646 264.277 350.082 264.543 349.672 265.074C349.266 265.605 349.062 266.361 349.062 267.342V268.168C349.062 269.094 349.256 269.83 349.643 270.377C350.029 270.924 350.57 271.197 351.266 271.197C351.891 271.197 352.369 271.057 352.701 270.775C353.037 270.49 353.26 269.996 353.369 269.293H354.5ZM355.584 268.771C355.584 268.15 355.705 267.592 355.947 267.096C356.193 266.6 356.533 266.217 356.967 265.947C357.404 265.678 357.902 265.543 358.461 265.543C359.324 265.543 360.021 265.842 360.553 266.439C361.088 267.037 361.355 267.832 361.355 268.824V268.9C361.355 269.518 361.236 270.072 360.998 270.564C360.764 271.053 360.426 271.434 359.984 271.707C359.547 271.98 359.043 272.117 358.473 272.117C357.613 272.117 356.916 271.818 356.381 271.221C355.85 270.623 355.584 269.832 355.584 268.848V268.771ZM356.674 268.9C356.674 269.604 356.836 270.168 357.16 270.594C357.488 271.02 357.926 271.232 358.473 271.232C359.023 271.232 359.461 271.018 359.785 270.588C360.109 270.154 360.271 269.549 360.271 268.771C360.271 268.076 360.105 267.514 359.773 267.084C359.445 266.65 359.008 266.434 358.461 266.434C357.926 266.434 357.494 266.646 357.166 267.072C356.838 267.498 356.674 268.107 356.674 268.9ZM363.734 265.66L363.764 266.363C364.228 265.816 364.855 265.543 365.644 265.543C366.531 265.543 367.135 265.883 367.455 266.562C367.666 266.258 367.939 266.012 368.275 265.824C368.615 265.637 369.016 265.543 369.477 265.543C370.867 265.543 371.574 266.279 371.598 267.752V272H370.514V267.816C370.514 267.363 370.41 267.025 370.203 266.803C369.996 266.576 369.648 266.463 369.16 266.463C368.758 266.463 368.424 266.584 368.158 266.826C367.893 267.064 367.738 267.387 367.695 267.793V272H366.605V267.846C366.605 266.924 366.154 266.463 365.252 266.463C364.541 266.463 364.055 266.766 363.793 267.371V272H362.709V265.66H363.734ZM378.594 268.9C378.594 269.865 378.373 270.643 377.932 271.232C377.49 271.822 376.893 272.117 376.139 272.117C375.369 272.117 374.764 271.873 374.322 271.385V274.438H373.238V265.66H374.228L374.281 266.363C374.723 265.816 375.336 265.543 376.121 265.543C376.883 265.543 377.484 265.83 377.926 266.404C378.371 266.979 378.594 267.777 378.594 268.801V268.9ZM377.51 268.777C377.51 268.062 377.357 267.498 377.053 267.084C376.748 266.67 376.33 266.463 375.799 266.463C375.143 266.463 374.65 266.754 374.322 267.336V270.365C374.646 270.943 375.143 271.232 375.811 271.232C376.33 271.232 376.742 271.027 377.047 270.617C377.355 270.203 377.51 269.59 377.51 268.777ZM383.891 272C383.828 271.875 383.777 271.652 383.738 271.332C383.234 271.855 382.633 272.117 381.934 272.117C381.309 272.117 380.795 271.941 380.393 271.59C379.994 271.234 379.795 270.785 379.795 270.242C379.795 269.582 380.045 269.07 380.545 268.707C381.049 268.34 381.756 268.156 382.666 268.156H383.721V267.658C383.721 267.279 383.607 266.979 383.381 266.756C383.154 266.529 382.82 266.416 382.379 266.416C381.992 266.416 381.668 266.514 381.406 266.709C381.144 266.904 381.014 267.141 381.014 267.418H379.924C379.924 267.102 380.035 266.797 380.258 266.504C380.484 266.207 380.789 265.973 381.172 265.801C381.559 265.629 381.982 265.543 382.443 265.543C383.174 265.543 383.746 265.727 384.16 266.094C384.574 266.457 384.789 266.959 384.805 267.6V270.518C384.805 271.1 384.879 271.562 385.027 271.906V272H383.891ZM382.092 271.174C382.432 271.174 382.754 271.086 383.059 270.91C383.363 270.734 383.584 270.506 383.721 270.225V268.924H382.871C381.543 268.924 380.879 269.312 380.879 270.09C380.879 270.43 380.992 270.695 381.219 270.887C381.445 271.078 381.736 271.174 382.092 271.174ZM389.568 266.633C389.404 266.605 389.227 266.592 389.035 266.592C388.324 266.592 387.842 266.895 387.588 267.5V272H386.504V265.66H387.559L387.576 266.393C387.932 265.826 388.436 265.543 389.088 265.543C389.299 265.543 389.459 265.57 389.568 265.625V266.633ZM393.084 272.117C392.225 272.117 391.525 271.836 390.986 271.273C390.447 270.707 390.178 269.951 390.178 269.006V268.807C390.178 268.178 390.297 267.617 390.535 267.125C390.777 266.629 391.113 266.242 391.543 265.965C391.977 265.684 392.445 265.543 392.949 265.543C393.773 265.543 394.414 265.814 394.871 266.357C395.328 266.9 395.557 267.678 395.557 268.689V269.141H391.262C391.277 269.766 391.459 270.271 391.807 270.658C392.158 271.041 392.603 271.232 393.143 271.232C393.525 271.232 393.85 271.154 394.115 270.998C394.381 270.842 394.613 270.635 394.812 270.377L395.475 270.893C394.943 271.709 394.146 272.117 393.084 272.117ZM392.949 266.434C392.512 266.434 392.144 266.594 391.848 266.914C391.551 267.23 391.367 267.676 391.297 268.25H394.473V268.168C394.441 267.617 394.293 267.191 394.027 266.891C393.762 266.586 393.402 266.434 392.949 266.434ZM406.519 272H405.389V268.057H401.088V272H399.963V263.469H401.088V267.137H405.389V263.469H406.519V272ZM408.061 268.771C408.061 268.15 408.182 267.592 408.424 267.096C408.67 266.6 409.01 266.217 409.443 265.947C409.881 265.678 410.379 265.543 410.937 265.543C411.801 265.543 412.498 265.842 413.029 266.439C413.564 267.037 413.832 267.832 413.832 268.824V268.9C413.832 269.518 413.713 270.072 413.475 270.564C413.24 271.053 412.902 271.434 412.461 271.707C412.023 271.98 411.519 272.117 410.949 272.117C410.09 272.117 409.393 271.818 408.857 271.221C408.326 270.623 408.061 269.832 408.061 268.848V268.771ZM409.15 268.9C409.15 269.604 409.312 270.168 409.637 270.594C409.965 271.02 410.402 271.232 410.949 271.232C411.5 271.232 411.937 271.018 412.262 270.588C412.586 270.154 412.748 269.549 412.748 268.771C412.748 268.076 412.582 267.514 412.25 267.084C411.922 266.65 411.484 266.434 410.937 266.434C410.402 266.434 409.971 266.646 409.643 267.072C409.314 267.498 409.15 268.107 409.15 268.9ZM416.662 264.125V265.66H417.846V266.498H416.662V270.43C416.662 270.684 416.715 270.875 416.82 271.004C416.926 271.129 417.105 271.191 417.359 271.191C417.484 271.191 417.656 271.168 417.875 271.121V272C417.59 272.078 417.312 272.117 417.043 272.117C416.559 272.117 416.193 271.971 415.947 271.678C415.701 271.385 415.578 270.969 415.578 270.43V266.498H414.424V265.66H415.578V264.125H416.662ZM421.748 272.117C420.889 272.117 420.189 271.836 419.65 271.273C419.111 270.707 418.842 269.951 418.842 269.006V268.807C418.842 268.178 418.961 267.617 419.199 267.125C419.441 266.629 419.777 266.242 420.207 265.965C420.641 265.684 421.109 265.543 421.613 265.543C422.437 265.543 423.078 265.814 423.535 266.357C423.992 266.9 424.221 267.678 424.221 268.689V269.141H419.926C419.941 269.766 420.123 270.271 420.471 270.658C420.822 271.041 421.268 271.232 421.807 271.232C422.189 271.232 422.514 271.154 422.779 270.998C423.045 270.842 423.277 270.635 423.477 270.377L424.139 270.893C423.607 271.709 422.811 272.117 421.748 272.117ZM421.613 266.434C421.176 266.434 420.809 266.594 420.512 266.914C420.215 267.23 420.031 267.676 419.961 268.25H423.137V268.168C423.105 267.617 422.957 267.191 422.691 266.891C422.426 266.586 422.066 266.434 421.613 266.434ZM426.658 272H425.574V263H426.658V272ZM432.09 270.318C432.09 270.025 431.978 269.799 431.756 269.639C431.537 269.475 431.152 269.334 430.602 269.217C430.055 269.1 429.619 268.959 429.295 268.795C428.975 268.631 428.736 268.436 428.58 268.209C428.428 267.982 428.352 267.713 428.352 267.4C428.352 266.881 428.57 266.441 429.008 266.082C429.449 265.723 430.012 265.543 430.695 265.543C431.414 265.543 431.996 265.729 432.441 266.1C432.891 266.471 433.115 266.945 433.115 267.523H432.025C432.025 267.227 431.898 266.971 431.644 266.756C431.394 266.541 431.078 266.434 430.695 266.434C430.301 266.434 429.992 266.52 429.769 266.691C429.547 266.863 429.436 267.088 429.436 267.365C429.436 267.627 429.539 267.824 429.746 267.957C429.953 268.09 430.326 268.217 430.865 268.338C431.408 268.459 431.848 268.604 432.184 268.771C432.519 268.939 432.768 269.143 432.928 269.381C433.092 269.615 433.174 269.902 433.174 270.242C433.174 270.809 432.947 271.264 432.494 271.607C432.041 271.947 431.453 272.117 430.73 272.117C430.223 272.117 429.773 272.027 429.383 271.848C428.992 271.668 428.686 271.418 428.463 271.098C428.244 270.773 428.135 270.424 428.135 270.049H429.219C429.238 270.412 429.383 270.701 429.652 270.916C429.926 271.127 430.285 271.232 430.73 271.232C431.141 271.232 431.469 271.15 431.715 270.986C431.965 270.818 432.09 270.596 432.09 270.318Z" fill="black"/>
<rect x="53.5" y="330.5" width="69" height="69" rx="9.5" stroke="#CBCBCB"/>
<rect x="86" y="345" width="3" height="41" rx="1.5" fill="#C4C4C4"/>
<rect x="66" y="364" width="41" height="3" rx="1.5" fill="#C4C4C4"/>
<rect x="53" y="16" width="393" height="24" rx="4" fill="#C4C4C4" fill-opacity="0.3"/>
<path d="M70.1152 28.1973C69.1504 27.9199 68.4473 27.5801 68.0059 27.1777C67.5684 26.7715 67.3496 26.2715 67.3496 25.6777C67.3496 25.0059 67.6172 24.4512 68.1523 24.0137C68.6914 23.5723 69.3906 23.3516 70.25 23.3516C70.8359 23.3516 71.3574 23.4648 71.8145 23.6914C72.2754 23.918 72.6309 24.2305 72.8809 24.6289C73.1348 25.0273 73.2617 25.4629 73.2617 25.9355H72.1309C72.1309 25.4199 71.9668 25.0156 71.6387 24.7227C71.3105 24.4258 70.8477 24.2773 70.25 24.2773C69.6953 24.2773 69.2617 24.4004 68.9492 24.6465C68.6406 24.8887 68.4863 25.2266 68.4863 25.6602C68.4863 26.0078 68.6328 26.3027 68.9258 26.5449C69.2227 26.7832 69.7246 27.002 70.4316 27.2012C71.1426 27.4004 71.6973 27.6211 72.0957 27.8633C72.498 28.1016 72.7949 28.3809 72.9863 28.7012C73.1816 29.0215 73.2793 29.3984 73.2793 29.832C73.2793 30.5234 73.0098 31.0781 72.4707 31.4961C71.9316 31.9102 71.2109 32.1172 70.3086 32.1172C69.7227 32.1172 69.1758 32.0059 68.668 31.7832C68.1602 31.5566 67.7676 31.248 67.4902 30.8574C67.2168 30.4668 67.0801 30.0234 67.0801 29.5273H68.2109C68.2109 30.043 68.4004 30.4512 68.7793 30.752C69.1621 31.0488 69.6719 31.1973 70.3086 31.1973C70.9023 31.1973 71.3574 31.0762 71.6738 30.834C71.9902 30.5918 72.1484 30.2617 72.1484 29.8438C72.1484 29.4258 72.002 29.1035 71.709 28.877C71.416 28.6465 70.8848 28.4199 70.1152 28.1973ZM77.1875 32.1172C76.3281 32.1172 75.6289 31.8359 75.0898 31.2734C74.5508 30.707 74.2812 29.9512 74.2812 29.0059V28.8066C74.2812 28.1777 74.4004 27.6172 74.6387 27.125C74.8809 26.6289 75.2168 26.2422 75.6465 25.9648C76.0801 25.6836 76.5488 25.543 77.0527 25.543C77.877 25.543 78.5176 25.8145 78.9746 26.3574C79.4316 26.9004 79.6602 27.6777 79.6602 28.6895V29.1406H75.3652C75.3809 29.7656 75.5625 30.2715 75.9102 30.6582C76.2617 31.041 76.707 31.2324 77.2461 31.2324C77.6289 31.2324 77.9531 31.1543 78.2188 30.998C78.4844 30.8418 78.7168 30.6348 78.916 30.377L79.5781 30.8926C79.0469 31.709 78.25 32.1172 77.1875 32.1172ZM77.0527 26.4336C76.6152 26.4336 76.248 26.5938 75.9512 26.9141C75.6543 27.2305 75.4707 27.6758 75.4004 28.25H78.5762V28.168C78.5449 27.6172 78.3965 27.1914 78.1309 26.8906C77.8652 26.5859 77.5059 26.4336 77.0527 26.4336ZM84.834 32C84.7715 31.875 84.7207 31.6523 84.6816 31.332C84.1777 31.8555 83.5762 32.1172 82.877 32.1172C82.252 32.1172 81.7383 31.9414 81.3359 31.5898C80.9375 31.2344 80.7383 30.7852 80.7383 30.2422C80.7383 29.582 80.9883 29.0703 81.4883 28.707C81.9922 28.3398 82.6992 28.1562 83.6094 28.1562H84.6641V27.6582C84.6641 27.2793 84.5508 26.9785 84.3242 26.7559C84.0977 26.5293 83.7637 26.416 83.3223 26.416C82.9355 26.416 82.6113 26.5137 82.3496 26.709C82.0879 26.9043 81.957 27.1406 81.957 27.418H80.8672C80.8672 27.1016 80.9785 26.7969 81.2012 26.5039C81.4277 26.207 81.7324 25.9727 82.1152 25.8008C82.502 25.6289 82.9258 25.543 83.3867 25.543C84.1172 25.543 84.6895 25.7266 85.1035 26.0938C85.5176 26.457 85.7324 26.959 85.748 27.5996V30.5176C85.748 31.0996 85.8223 31.5625 85.9707 31.9062V32H84.834ZM83.0352 31.1738C83.375 31.1738 83.6973 31.0859 84.002 30.9102C84.3066 30.7344 84.5273 30.5059 84.6641 30.2246V28.9238H83.8145C82.4863 28.9238 81.8223 29.3125 81.8223 30.0898C81.8223 30.4297 81.9355 30.6953 82.1621 30.8867C82.3887 31.0781 82.6797 31.1738 83.0352 31.1738ZM90.5117 26.6328C90.3477 26.6055 90.1699 26.5918 89.9785 26.5918C89.2676 26.5918 88.7852 26.8945 88.5312 27.5V32H87.4473V25.6602H88.502L88.5195 26.3926C88.875 25.8262 89.3789 25.543 90.0312 25.543C90.2422 25.543 90.4023 25.5703 90.5117 25.625V26.6328ZM93.9395 31.2324C94.3262 31.2324 94.6641 31.1152 94.9531 30.8809C95.2422 30.6465 95.4023 30.3535 95.4336 30.002H96.459C96.4395 30.3652 96.3145 30.7109 96.084 31.0391C95.8535 31.3672 95.5449 31.6289 95.1582 31.8242C94.7754 32.0195 94.3691 32.1172 93.9395 32.1172C93.0762 32.1172 92.3887 31.8301 91.877 31.2559C91.3691 30.6777 91.1152 29.8887 91.1152 28.8887V28.707C91.1152 28.0898 91.2285 27.541 91.4551 27.0605C91.6816 26.5801 92.0059 26.207 92.4277 25.9414C92.8535 25.6758 93.3555 25.543 93.9336 25.543C94.6445 25.543 95.2344 25.7559 95.7031 26.1816C96.1758 26.6074 96.4277 27.1602 96.459 27.8398H95.4336C95.4023 27.4297 95.2461 27.0938 94.9648 26.832C94.6875 26.5664 94.3438 26.4336 93.9336 26.4336C93.3828 26.4336 92.9551 26.6328 92.6504 27.0312C92.3496 27.4258 92.1992 27.998 92.1992 28.748V28.9531C92.1992 29.6836 92.3496 30.2461 92.6504 30.6406C92.9512 31.0352 93.3809 31.2324 93.9395 31.2324ZM98.7617 26.4277C99.2422 25.8379 99.8672 25.543 100.637 25.543C101.977 25.543 102.652 26.2988 102.664 27.8105V32H101.58V27.8047C101.576 27.3477 101.471 27.0098 101.264 26.791C101.061 26.5723 100.742 26.4629 100.309 26.4629C99.957 26.4629 99.6484 26.5566 99.3828 26.7441C99.1172 26.9316 98.9102 27.1777 98.7617 27.4824V32H97.6777V23H98.7617V26.4277ZM111.178 32C111.115 31.875 111.064 31.6523 111.025 31.332C110.521 31.8555 109.92 32.1172 109.221 32.1172C108.596 32.1172 108.082 31.9414 107.68 31.5898C107.281 31.2344 107.082 30.7852 107.082 30.2422C107.082 29.582 107.332 29.0703 107.832 28.707C108.336 28.3398 109.043 28.1562 109.953 28.1562H111.008V27.6582C111.008 27.2793 110.895 26.9785 110.668 26.7559C110.441 26.5293 110.107 26.416 109.666 26.416C109.279 26.416 108.955 26.5137 108.693 26.709C108.432 26.9043 108.301 27.1406 108.301 27.418H107.211C107.211 27.1016 107.322 26.7969 107.545 26.5039C107.771 26.207 108.076 25.9727 108.459 25.8008C108.846 25.6289 109.27 25.543 109.73 25.543C110.461 25.543 111.033 25.7266 111.447 26.0938C111.861 26.457 112.076 26.959 112.092 27.5996V30.5176C112.092 31.0996 112.166 31.5625 112.314 31.9062V32H111.178ZM109.379 31.1738C109.719 31.1738 110.041 31.0859 110.346 30.9102C110.65 30.7344 110.871 30.5059 111.008 30.2246V28.9238H110.158C108.83 28.9238 108.166 29.3125 108.166 30.0898C108.166 30.4297 108.279 30.6953 108.506 30.8867C108.732 31.0781 109.023 31.1738 109.379 31.1738ZM114.816 25.6602L114.852 26.457C115.336 25.8477 115.969 25.543 116.75 25.543C118.09 25.543 118.766 26.2988 118.777 27.8105V32H117.693V27.8047C117.689 27.3477 117.584 27.0098 117.377 26.791C117.174 26.5723 116.855 26.4629 116.422 26.4629C116.07 26.4629 115.762 26.5566 115.496 26.7441C115.23 26.9316 115.023 27.1777 114.875 27.4824V32H113.791V25.6602H114.816ZM120.148 28.7773C120.148 27.8047 120.379 27.0234 120.84 26.4336C121.301 25.8398 121.904 25.543 122.65 25.543C123.393 25.543 123.98 25.7969 124.414 26.3047V23H125.498V32H124.502L124.449 31.3203C124.016 31.8516 123.412 32.1172 122.639 32.1172C121.904 32.1172 121.305 31.8164 120.84 31.2148C120.379 30.6133 120.148 29.8281 120.148 28.8594V28.7773ZM121.232 28.9004C121.232 29.6191 121.381 30.1816 121.678 30.5879C121.975 30.9941 122.385 31.1973 122.908 31.1973C123.596 31.1973 124.098 30.8887 124.414 30.2715V27.3594C124.09 26.7617 123.592 26.4629 122.92 26.4629C122.389 26.4629 121.975 26.668 121.678 27.0781C121.381 27.4883 121.232 28.0957 121.232 28.9004ZM134.076 32C134.014 31.875 133.963 31.6523 133.924 31.332C133.42 31.8555 132.818 32.1172 132.119 32.1172C131.494 32.1172 130.98 31.9414 130.578 31.5898C130.18 31.2344 129.98 30.7852 129.98 30.2422C129.98 29.582 130.23 29.0703 130.73 28.707C131.234 28.3398 131.941 28.1562 132.852 28.1562H133.906V27.6582C133.906 27.2793 133.793 26.9785 133.566 26.7559C133.34 26.5293 133.006 26.416 132.564 26.416C132.178 26.416 131.854 26.5137 131.592 26.709C131.33 26.9043 131.199 27.1406 131.199 27.418H130.109C130.109 27.1016 130.221 26.7969 130.443 26.5039C130.67 26.207 130.975 25.9727 131.357 25.8008C131.744 25.6289 132.168 25.543 132.629 25.543C133.359 25.543 133.932 25.7266 134.346 26.0938C134.76 26.457 134.975 26.959 134.99 27.5996V30.5176C134.99 31.0996 135.064 31.5625 135.213 31.9062V32H134.076ZM132.277 31.1738C132.617 31.1738 132.939 31.0859 133.244 30.9102C133.549 30.7344 133.77 30.5059 133.906 30.2246V28.9238H133.057C131.729 28.9238 131.064 29.3125 131.064 30.0898C131.064 30.4297 131.178 30.6953 131.404 30.8867C131.631 31.0781 131.922 31.1738 132.277 31.1738ZM136.426 28.7773C136.426 27.8047 136.656 27.0234 137.117 26.4336C137.578 25.8398 138.182 25.543 138.928 25.543C139.67 25.543 140.258 25.7969 140.691 26.3047V23H141.775V32H140.779L140.727 31.3203C140.293 31.8516 139.689 32.1172 138.916 32.1172C138.182 32.1172 137.582 31.8164 137.117 31.2148C136.656 30.6133 136.426 29.8281 136.426 28.8594V28.7773ZM137.51 28.9004C137.51 29.6191 137.658 30.1816 137.955 30.5879C138.252 30.9941 138.662 31.1973 139.186 31.1973C139.873 31.1973 140.375 30.8887 140.691 30.2715V27.3594C140.367 26.7617 139.869 26.4629 139.197 26.4629C138.666 26.4629 138.252 26.668 137.955 27.0781C137.658 27.4883 137.51 28.0957 137.51 28.9004ZM143.199 28.7773C143.199 27.8047 143.43 27.0234 143.891 26.4336C144.352 25.8398 144.955 25.543 145.701 25.543C146.443 25.543 147.031 25.7969 147.465 26.3047V23H148.549V32H147.553L147.5 31.3203C147.066 31.8516 146.463 32.1172 145.689 32.1172C144.955 32.1172 144.355 31.8164 143.891 31.2148C143.43 30.6133 143.199 29.8281 143.199 28.8594V28.7773ZM144.283 28.9004C144.283 29.6191 144.432 30.1816 144.729 30.5879C145.025 30.9941 145.436 31.1973 145.959 31.1973C146.646 31.1973 147.148 30.8887 147.465 30.2715V27.3594C147.141 26.7617 146.643 26.4629 145.971 26.4629C145.439 26.4629 145.025 26.668 144.729 27.0781C144.432 27.4883 144.283 28.0957 144.283 28.9004ZM154.232 25.6602L154.262 26.3633C154.727 25.8164 155.354 25.543 156.143 25.543C157.029 25.543 157.633 25.8828 157.953 26.5625C158.164 26.2578 158.438 26.0117 158.773 25.8242C159.113 25.6367 159.514 25.543 159.975 25.543C161.365 25.543 162.072 26.2793 162.096 27.752V32H161.012V27.8164C161.012 27.3633 160.908 27.0254 160.701 26.8027C160.494 26.5762 160.146 26.4629 159.658 26.4629C159.256 26.4629 158.922 26.584 158.656 26.8262C158.391 27.0645 158.236 27.3867 158.193 27.793V32H157.104V27.8457C157.104 26.9238 156.652 26.4629 155.75 26.4629C155.039 26.4629 154.553 26.7656 154.291 27.3711V32H153.207V25.6602H154.232ZM163.449 28.7715C163.449 28.1504 163.57 27.5918 163.812 27.0957C164.059 26.5996 164.398 26.2168 164.832 25.9473C165.27 25.6777 165.768 25.543 166.326 25.543C167.189 25.543 167.887 25.8418 168.418 26.4395C168.953 27.0371 169.221 27.832 169.221 28.8242V28.9004C169.221 29.5176 169.102 30.0723 168.863 30.5645C168.629 31.0527 168.291 31.4336 167.85 31.707C167.412 31.9805 166.908 32.1172 166.338 32.1172C165.479 32.1172 164.781 31.8184 164.246 31.2207C163.715 30.623 163.449 29.832 163.449 28.8477V28.7715ZM164.539 28.9004C164.539 29.6035 164.701 30.168 165.025 30.5938C165.354 31.0195 165.791 31.2324 166.338 31.2324C166.889 31.2324 167.326 31.0176 167.65 30.5879C167.975 30.1543 168.137 29.5488 168.137 28.7715C168.137 28.0762 167.971 27.5137 167.639 27.084C167.311 26.6504 166.873 26.4336 166.326 26.4336C165.791 26.4336 165.359 26.6465 165.031 27.0723C164.703 27.498 164.539 28.1074 164.539 28.9004ZM173.645 26.6328C173.48 26.6055 173.303 26.5918 173.111 26.5918C172.4 26.5918 171.918 26.8945 171.664 27.5V32H170.58V25.6602H171.635L171.652 26.3926C172.008 25.8262 172.512 25.543 173.164 25.543C173.375 25.543 173.535 25.5703 173.645 25.625V26.6328ZM177.16 32.1172C176.301 32.1172 175.602 31.8359 175.062 31.2734C174.523 30.707 174.254 29.9512 174.254 29.0059V28.8066C174.254 28.1777 174.373 27.6172 174.611 27.125C174.854 26.6289 175.189 26.2422 175.619 25.9648C176.053 25.6836 176.521 25.543 177.025 25.543C177.85 25.543 178.49 25.8145 178.947 26.3574C179.404 26.9004 179.633 27.6777 179.633 28.6895V29.1406H175.338C175.354 29.7656 175.535 30.2715 175.883 30.6582C176.234 31.041 176.68 31.2324 177.219 31.2324C177.602 31.2324 177.926 31.1543 178.191 30.998C178.457 30.8418 178.689 30.6348 178.889 30.377L179.551 30.8926C179.02 31.709 178.223 32.1172 177.16 32.1172ZM177.025 26.4336C176.588 26.4336 176.221 26.5938 175.924 26.9141C175.627 27.2305 175.443 27.6758 175.373 28.25H178.549V28.168C178.518 27.6172 178.369 27.1914 178.104 26.8906C177.838 26.5859 177.479 26.4336 177.025 26.4336ZM184.953 26.4277C185.434 25.8379 186.059 25.543 186.828 25.543C188.168 25.543 188.844 26.2988 188.855 27.8105V32H187.771V27.8047C187.768 27.3477 187.662 27.0098 187.455 26.791C187.252 26.5723 186.934 26.4629 186.5 26.4629C186.148 26.4629 185.84 26.5566 185.574 26.7441C185.309 26.9316 185.102 27.1777 184.953 27.4824V32H183.869V23H184.953V26.4277ZM190.191 28.7715C190.191 28.1504 190.312 27.5918 190.555 27.0957C190.801 26.5996 191.141 26.2168 191.574 25.9473C192.012 25.6777 192.51 25.543 193.068 25.543C193.932 25.543 194.629 25.8418 195.16 26.4395C195.695 27.0371 195.963 27.832 195.963 28.8242V28.9004C195.963 29.5176 195.844 30.0723 195.605 30.5645C195.371 31.0527 195.033 31.4336 194.592 31.707C194.154 31.9805 193.65 32.1172 193.08 32.1172C192.221 32.1172 191.523 31.8184 190.988 31.2207C190.457 30.623 190.191 29.832 190.191 28.8477V28.7715ZM191.281 28.9004C191.281 29.6035 191.443 30.168 191.768 30.5938C192.096 31.0195 192.533 31.2324 193.08 31.2324C193.631 31.2324 194.068 31.0176 194.393 30.5879C194.717 30.1543 194.879 29.5488 194.879 28.7715C194.879 28.0762 194.713 27.5137 194.381 27.084C194.053 26.6504 193.615 26.4336 193.068 26.4336C192.533 26.4336 192.102 26.6465 191.773 27.0723C191.445 27.498 191.281 28.1074 191.281 28.9004ZM198.793 24.125V25.6602H199.977V26.498H198.793V30.4297C198.793 30.6836 198.846 30.875 198.951 31.0039C199.057 31.1289 199.236 31.1914 199.49 31.1914C199.615 31.1914 199.787 31.168 200.006 31.1211V32C199.721 32.0781 199.443 32.1172 199.174 32.1172C198.689 32.1172 198.324 31.9707 198.078 31.6777C197.832 31.3848 197.709 30.9688 197.709 30.4297V26.498H196.555V25.6602H197.709V24.125H198.793ZM203.879 32.1172C203.02 32.1172 202.32 31.8359 201.781 31.2734C201.242 30.707 200.973 29.9512 200.973 29.0059V28.8066C200.973 28.1777 201.092 27.6172 201.33 27.125C201.572 26.6289 201.908 26.2422 202.338 25.9648C202.771 25.6836 203.24 25.543 203.744 25.543C204.568 25.543 205.209 25.8145 205.666 26.3574C206.123 26.9004 206.352 27.6777 206.352 28.6895V29.1406H202.057C202.072 29.7656 202.254 30.2715 202.602 30.6582C202.953 31.041 203.398 31.2324 203.938 31.2324C204.32 31.2324 204.645 31.1543 204.91 30.998C205.176 30.8418 205.408 30.6348 205.607 30.377L206.27 30.8926C205.738 31.709 204.941 32.1172 203.879 32.1172ZM203.744 26.4336C203.307 26.4336 202.939 26.5938 202.643 26.9141C202.346 27.2305 202.162 27.6758 202.092 28.25H205.268V28.168C205.236 27.6172 205.088 27.1914 204.822 26.8906C204.557 26.5859 204.197 26.4336 203.744 26.4336ZM208.789 32H207.705V23H208.789V32ZM214.221 30.3184C214.221 30.0254 214.109 29.7988 213.887 29.6387C213.668 29.4746 213.283 29.334 212.732 29.2168C212.186 29.0996 211.75 28.959 211.426 28.7949C211.105 28.6309 210.867 28.4355 210.711 28.209C210.559 27.9824 210.482 27.7129 210.482 27.4004C210.482 26.8809 210.701 26.4414 211.139 26.082C211.58 25.7227 212.143 25.543 212.826 25.543C213.545 25.543 214.127 25.7285 214.572 26.0996C215.021 26.4707 215.246 26.9453 215.246 27.5234H214.156C214.156 27.2266 214.029 26.9707 213.775 26.7559C213.525 26.541 213.209 26.4336 212.826 26.4336C212.432 26.4336 212.123 26.5195 211.9 26.6914C211.678 26.8633 211.566 27.0879 211.566 27.3652C211.566 27.627 211.67 27.8242 211.877 27.957C212.084 28.0898 212.457 28.2168 212.996 28.3379C213.539 28.459 213.979 28.6035 214.314 28.7715C214.65 28.9395 214.898 29.1426 215.059 29.3809C215.223 29.6152 215.305 29.9023 215.305 30.2422C215.305 30.8086 215.078 31.2637 214.625 31.6074C214.172 31.9473 213.584 32.1172 212.861 32.1172C212.354 32.1172 211.904 32.0273 211.514 31.8477C211.123 31.668 210.816 31.418 210.594 31.0977C210.375 30.7734 210.266 30.4238 210.266 30.0488H211.35C211.369 30.4121 211.514 30.7012 211.783 30.916C212.057 31.127 212.416 31.2324 212.861 31.2324C213.271 31.2324 213.6 31.1504 213.846 30.9863C214.096 30.8184 214.221 30.5957 214.221 30.3184ZM216.74 31.4316C216.74 31.2441 216.795 31.0879 216.904 30.9629C217.018 30.8379 217.186 30.7754 217.408 30.7754C217.631 30.7754 217.799 30.8379 217.912 30.9629C218.029 31.0879 218.088 31.2441 218.088 31.4316C218.088 31.6113 218.029 31.7617 217.912 31.8828C217.799 32.0039 217.631 32.0645 217.408 32.0645C217.186 32.0645 217.018 32.0039 216.904 31.8828C216.795 31.7617 216.74 31.6113 216.74 31.4316ZM219.904 31.4316C219.904 31.2441 219.959 31.0879 220.068 30.9629C220.182 30.8379 220.35 30.7754 220.572 30.7754C220.795 30.7754 220.963 30.8379 221.076 30.9629C221.193 31.0879 221.252 31.2441 221.252 31.4316C221.252 31.6113 221.193 31.7617 221.076 31.8828C220.963 32.0039 220.795 32.0645 220.572 32.0645C220.35 32.0645 220.182 32.0039 220.068 31.8828C219.959 31.7617 219.904 31.6113 219.904 31.4316ZM223.068 31.4316C223.068 31.2441 223.123 31.0879 223.232 30.9629C223.346 30.8379 223.514 30.7754 223.736 30.7754C223.959 30.7754 224.127 30.8379 224.24 30.9629C224.357 31.0879 224.416 31.2441 224.416 31.4316C224.416 31.6113 224.357 31.7617 224.24 31.8828C224.127 32.0039 223.959 32.0645 223.736 32.0645C223.514 32.0645 223.346 32.0039 223.232 31.8828C223.123 31.7617 223.068 31.6113 223.068 31.4316Z" fill="#B3AFAF"/>
<line x1="192" y1="247.5" x2="303" y2="247.5" stroke="#CBCBCB"/>
<path d="M214.334 242.08H218.377V243H213.203V234.469H214.334V242.08ZM223.404 243C223.342 242.875 223.291 242.652 223.252 242.332C222.748 242.855 222.146 243.117 221.447 243.117C220.822 243.117 220.309 242.941 219.906 242.59C219.508 242.234 219.309 241.785 219.309 241.242C219.309 240.582 219.559 240.07 220.059 239.707C220.562 239.34 221.27 239.156 222.18 239.156H223.234V238.658C223.234 238.279 223.121 237.979 222.895 237.756C222.668 237.529 222.334 237.416 221.893 237.416C221.506 237.416 221.182 237.514 220.92 237.709C220.658 237.904 220.527 238.141 220.527 238.418H219.438C219.438 238.102 219.549 237.797 219.771 237.504C219.998 237.207 220.303 236.973 220.686 236.801C221.072 236.629 221.496 236.543 221.957 236.543C222.688 236.543 223.26 236.727 223.674 237.094C224.088 237.457 224.303 237.959 224.318 238.6V241.518C224.318 242.1 224.393 242.562 224.541 242.906V243H223.404ZM221.605 242.174C221.945 242.174 222.268 242.086 222.572 241.91C222.877 241.734 223.098 241.506 223.234 241.225V239.924H222.385C221.057 239.924 220.393 240.312 220.393 241.09C220.393 241.43 220.506 241.695 220.732 241.887C220.959 242.078 221.25 242.174 221.605 242.174ZM227.488 235.125V236.66H228.672V237.498H227.488V241.43C227.488 241.684 227.541 241.875 227.646 242.004C227.752 242.129 227.932 242.191 228.186 242.191C228.311 242.191 228.482 242.168 228.701 242.121V243C228.416 243.078 228.139 243.117 227.869 243.117C227.385 243.117 227.02 242.971 226.773 242.678C226.527 242.385 226.404 241.969 226.404 241.43V237.498H225.25V236.66H226.404V235.125H227.488ZM232.574 243.117C231.715 243.117 231.016 242.836 230.477 242.273C229.938 241.707 229.668 240.951 229.668 240.006V239.807C229.668 239.178 229.787 238.617 230.025 238.125C230.268 237.629 230.604 237.242 231.033 236.965C231.467 236.684 231.936 236.543 232.439 236.543C233.264 236.543 233.904 236.814 234.361 237.357C234.818 237.9 235.047 238.678 235.047 239.689V240.141H230.752C230.768 240.766 230.949 241.271 231.297 241.658C231.648 242.041 232.094 242.232 232.633 242.232C233.016 242.232 233.34 242.154 233.605 241.998C233.871 241.842 234.104 241.635 234.303 241.377L234.965 241.893C234.434 242.709 233.637 243.117 232.574 243.117ZM232.439 237.434C232.002 237.434 231.635 237.594 231.338 237.914C231.041 238.23 230.857 238.676 230.787 239.25H233.963V239.168C233.932 238.617 233.783 238.191 233.518 237.891C233.252 237.586 232.893 237.434 232.439 237.434ZM239.998 241.318C239.998 241.025 239.887 240.799 239.664 240.639C239.445 240.475 239.061 240.334 238.51 240.217C237.963 240.1 237.527 239.959 237.203 239.795C236.883 239.631 236.645 239.436 236.488 239.209C236.336 238.982 236.26 238.713 236.26 238.4C236.26 237.881 236.479 237.441 236.916 237.082C237.357 236.723 237.92 236.543 238.604 236.543C239.322 236.543 239.904 236.729 240.35 237.1C240.799 237.471 241.023 237.945 241.023 238.523H239.934C239.934 238.227 239.807 237.971 239.553 237.756C239.303 237.541 238.986 237.434 238.604 237.434C238.209 237.434 237.9 237.52 237.678 237.691C237.455 237.863 237.344 238.088 237.344 238.365C237.344 238.627 237.447 238.824 237.654 238.957C237.861 239.09 238.234 239.217 238.773 239.338C239.316 239.459 239.756 239.604 240.092 239.771C240.428 239.939 240.676 240.143 240.836 240.381C241 240.615 241.082 240.902 241.082 241.242C241.082 241.809 240.855 242.264 240.402 242.607C239.949 242.947 239.361 243.117 238.639 243.117C238.131 243.117 237.682 243.027 237.291 242.848C236.9 242.668 236.594 242.418 236.371 242.098C236.152 241.773 236.043 241.424 236.043 241.049H237.127C237.146 241.412 237.291 241.701 237.561 241.916C237.834 242.127 238.193 242.232 238.639 242.232C239.049 242.232 239.377 242.15 239.623 241.986C239.873 241.818 239.998 241.596 239.998 241.318ZM249.385 242.373C248.963 242.869 248.344 243.117 247.527 243.117C246.852 243.117 246.336 242.922 245.98 242.531C245.629 242.137 245.451 241.555 245.447 240.785V236.66H246.531V240.756C246.531 241.717 246.922 242.197 247.703 242.197C248.531 242.197 249.082 241.889 249.355 241.271V236.66H250.439V243H249.408L249.385 242.373ZM257.447 239.9C257.447 240.865 257.227 241.643 256.785 242.232C256.344 242.822 255.746 243.117 254.992 243.117C254.223 243.117 253.617 242.873 253.176 242.385V245.438H252.092V236.66H253.082L253.135 237.363C253.576 236.816 254.189 236.543 254.975 236.543C255.736 236.543 256.338 236.83 256.779 237.404C257.225 237.979 257.447 238.777 257.447 239.801V239.9ZM256.363 239.777C256.363 239.062 256.211 238.498 255.906 238.084C255.602 237.67 255.184 237.463 254.652 237.463C253.996 237.463 253.504 237.754 253.176 238.336V241.365C253.5 241.943 253.996 242.232 254.664 242.232C255.184 242.232 255.596 242.027 255.9 241.617C256.209 241.203 256.363 240.59 256.363 239.777ZM258.566 239.777C258.566 238.805 258.797 238.023 259.258 237.434C259.719 236.84 260.322 236.543 261.068 236.543C261.811 236.543 262.398 236.797 262.832 237.305V234H263.916V243H262.92L262.867 242.32C262.434 242.852 261.83 243.117 261.057 243.117C260.322 243.117 259.723 242.816 259.258 242.215C258.797 241.613 258.566 240.828 258.566 239.859V239.777ZM259.65 239.9C259.65 240.619 259.799 241.182 260.096 241.588C260.393 241.994 260.803 242.197 261.326 242.197C262.014 242.197 262.516 241.889 262.832 241.271V238.359C262.508 237.762 262.01 237.463 261.338 237.463C260.807 237.463 260.393 237.668 260.096 238.078C259.799 238.488 259.65 239.096 259.65 239.9ZM269.518 243C269.455 242.875 269.404 242.652 269.365 242.332C268.861 242.855 268.26 243.117 267.561 243.117C266.936 243.117 266.422 242.941 266.02 242.59C265.621 242.234 265.422 241.785 265.422 241.242C265.422 240.582 265.672 240.07 266.172 239.707C266.676 239.34 267.383 239.156 268.293 239.156H269.348V238.658C269.348 238.279 269.234 237.979 269.008 237.756C268.781 237.529 268.447 237.416 268.006 237.416C267.619 237.416 267.295 237.514 267.033 237.709C266.771 237.904 266.641 238.141 266.641 238.418H265.551C265.551 238.102 265.662 237.797 265.885 237.504C266.111 237.207 266.416 236.973 266.799 236.801C267.186 236.629 267.609 236.543 268.07 236.543C268.801 236.543 269.373 236.727 269.787 237.094C270.201 237.457 270.416 237.959 270.432 238.6V241.518C270.432 242.1 270.506 242.562 270.654 242.906V243H269.518ZM267.719 242.174C268.059 242.174 268.381 242.086 268.686 241.91C268.99 241.734 269.211 241.506 269.348 241.225V239.924H268.498C267.17 239.924 266.506 240.312 266.506 241.09C266.506 241.43 266.619 241.695 266.846 241.887C267.072 242.078 267.363 242.174 267.719 242.174ZM273.602 235.125V236.66H274.785V237.498H273.602V241.43C273.602 241.684 273.654 241.875 273.76 242.004C273.865 242.129 274.045 242.191 274.299 242.191C274.424 242.191 274.596 242.168 274.814 242.121V243C274.529 243.078 274.252 243.117 273.982 243.117C273.498 243.117 273.133 242.971 272.887 242.678C272.641 242.385 272.518 241.969 272.518 241.43V237.498H271.363V236.66H272.518V235.125H273.602ZM278.688 243.117C277.828 243.117 277.129 242.836 276.59 242.273C276.051 241.707 275.781 240.951 275.781 240.006V239.807C275.781 239.178 275.9 238.617 276.139 238.125C276.381 237.629 276.717 237.242 277.146 236.965C277.58 236.684 278.049 236.543 278.553 236.543C279.377 236.543 280.018 236.814 280.475 237.357C280.932 237.9 281.16 238.678 281.16 239.689V240.141H276.865C276.881 240.766 277.062 241.271 277.41 241.658C277.762 242.041 278.207 242.232 278.746 242.232C279.129 242.232 279.453 242.154 279.719 241.998C279.984 241.842 280.217 241.635 280.416 241.377L281.078 241.893C280.547 242.709 279.75 243.117 278.688 243.117ZM278.553 237.434C278.115 237.434 277.748 237.594 277.451 237.914C277.154 238.23 276.971 238.676 276.9 239.25H280.076V239.168C280.045 238.617 279.896 238.191 279.631 237.891C279.365 237.586 279.006 237.434 278.553 237.434ZM286.111 241.318C286.111 241.025 286 240.799 285.777 240.639C285.559 240.475 285.174 240.334 284.623 240.217C284.076 240.1 283.641 239.959 283.316 239.795C282.996 239.631 282.758 239.436 282.602 239.209C282.449 238.982 282.373 238.713 282.373 238.4C282.373 237.881 282.592 237.441 283.029 237.082C283.471 236.723 284.033 236.543 284.717 236.543C285.436 236.543 286.018 236.729 286.463 237.1C286.912 237.471 287.137 237.945 287.137 238.523H286.047C286.047 238.227 285.92 237.971 285.666 237.756C285.416 237.541 285.1 237.434 284.717 237.434C284.322 237.434 284.014 237.52 283.791 237.691C283.568 237.863 283.457 238.088 283.457 238.365C283.457 238.627 283.561 238.824 283.768 238.957C283.975 239.09 284.348 239.217 284.887 239.338C285.43 239.459 285.869 239.604 286.205 239.771C286.541 239.939 286.789 240.143 286.949 240.381C287.113 240.615 287.195 240.902 287.195 241.242C287.195 241.809 286.969 242.264 286.516 242.607C286.062 242.947 285.475 243.117 284.752 243.117C284.244 243.117 283.795 243.027 283.404 242.848C283.014 242.668 282.707 242.418 282.484 242.098C282.266 241.773 282.156 241.424 282.156 241.049H283.24C283.26 241.412 283.404 241.701 283.674 241.916C283.947 242.127 284.307 242.232 284.752 242.232C285.162 242.232 285.49 242.15 285.736 241.986C285.986 241.818 286.111 241.596 286.111 241.318Z" fill="black"/>
<path d="M199.62 260.527C199.483 260.505 199.335 260.493 199.176 260.493C198.583 260.493 198.181 260.745 197.97 261.25V265H197.066V259.717H197.945L197.96 260.327C198.256 259.855 198.676 259.619 199.22 259.619C199.396 259.619 199.529 259.642 199.62 259.688V260.527ZM200.118 262.31C200.118 261.792 200.219 261.326 200.421 260.913C200.626 260.5 200.909 260.181 201.271 259.956C201.635 259.731 202.05 259.619 202.516 259.619C203.235 259.619 203.816 259.868 204.259 260.366C204.705 260.864 204.928 261.527 204.928 262.354V262.417C204.928 262.931 204.828 263.394 204.63 263.804C204.435 264.211 204.153 264.528 203.785 264.756C203.421 264.984 203.001 265.098 202.525 265.098C201.809 265.098 201.228 264.849 200.782 264.351C200.34 263.853 200.118 263.193 200.118 262.373V262.31ZM201.026 262.417C201.026 263.003 201.161 263.473 201.432 263.828C201.705 264.183 202.07 264.36 202.525 264.36C202.984 264.36 203.349 264.181 203.619 263.823C203.889 263.462 204.024 262.957 204.024 262.31C204.024 261.73 203.886 261.261 203.609 260.903C203.336 260.542 202.971 260.361 202.516 260.361C202.07 260.361 201.71 260.539 201.437 260.894C201.163 261.248 201.026 261.756 201.026 262.417ZM205.821 262.31C205.821 261.792 205.922 261.326 206.124 260.913C206.329 260.5 206.612 260.181 206.974 259.956C207.338 259.731 207.753 259.619 208.219 259.619C208.938 259.619 209.519 259.868 209.962 260.366C210.408 260.864 210.631 261.527 210.631 262.354V262.417C210.631 262.931 210.532 263.394 210.333 263.804C210.138 264.211 209.856 264.528 209.488 264.756C209.124 264.984 208.704 265.098 208.229 265.098C207.512 265.098 206.931 264.849 206.485 264.351C206.043 263.853 205.821 263.193 205.821 262.373V262.31ZM206.729 262.417C206.729 263.003 206.865 263.473 207.135 263.828C207.408 264.183 207.773 264.36 208.229 264.36C208.688 264.36 209.052 264.181 209.322 263.823C209.592 263.462 209.728 262.957 209.728 262.31C209.728 261.73 209.589 261.261 209.312 260.903C209.039 260.542 208.674 260.361 208.219 260.361C207.773 260.361 207.413 260.539 207.14 260.894C206.866 261.248 206.729 261.756 206.729 262.417ZM212.613 259.717L212.638 260.303C213.025 259.847 213.548 259.619 214.205 259.619C214.944 259.619 215.447 259.902 215.714 260.469C215.89 260.215 216.118 260.01 216.397 259.854C216.681 259.697 217.014 259.619 217.398 259.619C218.557 259.619 219.146 260.233 219.166 261.46V265H218.263V261.514C218.263 261.136 218.176 260.854 218.004 260.669C217.831 260.48 217.542 260.386 217.135 260.386C216.799 260.386 216.521 260.487 216.3 260.688C216.078 260.887 215.95 261.156 215.914 261.494V265H215.006V261.538C215.006 260.77 214.63 260.386 213.878 260.386C213.285 260.386 212.88 260.638 212.662 261.143V265H211.759V259.717H212.613ZM223.995 265H223.092V259.717H223.995V265ZM223.019 258.315C223.019 258.169 223.062 258.045 223.15 257.944C223.242 257.843 223.375 257.793 223.551 257.793C223.727 257.793 223.86 257.843 223.951 257.944C224.042 258.045 224.088 258.169 224.088 258.315C224.088 258.462 224.042 258.584 223.951 258.682C223.86 258.779 223.727 258.828 223.551 258.828C223.375 258.828 223.242 258.779 223.15 258.682C223.062 258.584 223.019 258.462 223.019 258.315ZM228.521 263.599C228.521 263.354 228.429 263.166 228.243 263.032C228.061 262.896 227.74 262.778 227.281 262.681C226.826 262.583 226.463 262.466 226.192 262.329C225.925 262.192 225.727 262.03 225.597 261.841C225.47 261.652 225.406 261.427 225.406 261.167C225.406 260.734 225.589 260.368 225.953 260.068C226.321 259.769 226.79 259.619 227.359 259.619C227.958 259.619 228.443 259.774 228.814 260.083C229.189 260.392 229.376 260.788 229.376 261.27H228.468C228.468 261.022 228.362 260.809 228.15 260.63C227.942 260.451 227.678 260.361 227.359 260.361C227.031 260.361 226.773 260.433 226.588 260.576C226.402 260.719 226.31 260.907 226.31 261.138C226.31 261.356 226.396 261.52 226.568 261.631C226.741 261.742 227.052 261.847 227.501 261.948C227.953 262.049 228.32 262.17 228.6 262.31C228.88 262.45 229.086 262.619 229.22 262.817C229.356 263.013 229.425 263.252 229.425 263.535C229.425 264.007 229.236 264.386 228.858 264.673C228.481 264.956 227.991 265.098 227.389 265.098C226.965 265.098 226.591 265.023 226.266 264.873C225.94 264.723 225.685 264.515 225.499 264.248C225.317 263.978 225.226 263.687 225.226 263.374H226.129C226.145 263.677 226.266 263.918 226.49 264.097C226.718 264.272 227.018 264.36 227.389 264.36C227.73 264.36 228.004 264.292 228.209 264.155C228.417 264.015 228.521 263.83 228.521 263.599Z" fill="black"/>
<path d="M236.344 265C236.292 264.896 236.249 264.71 236.217 264.443C235.797 264.88 235.296 265.098 234.713 265.098C234.192 265.098 233.764 264.951 233.429 264.658C233.097 264.362 232.931 263.988 232.931 263.535C232.931 262.985 233.139 262.559 233.556 262.256C233.976 261.95 234.565 261.797 235.323 261.797H236.202V261.382C236.202 261.066 236.108 260.815 235.919 260.63C235.73 260.441 235.452 260.347 235.084 260.347C234.762 260.347 234.492 260.428 234.273 260.591C234.055 260.754 233.946 260.951 233.946 261.182H233.038C233.038 260.918 233.131 260.664 233.316 260.42C233.505 260.173 233.759 259.977 234.078 259.834C234.4 259.691 234.754 259.619 235.138 259.619C235.746 259.619 236.223 259.772 236.568 260.078C236.913 260.381 237.092 260.799 237.105 261.333V263.765C237.105 264.25 237.167 264.635 237.291 264.922V265H236.344ZM234.845 264.312C235.128 264.312 235.396 264.238 235.65 264.092C235.904 263.945 236.088 263.755 236.202 263.521V262.437H235.494C234.387 262.437 233.834 262.76 233.834 263.408C233.834 263.691 233.928 263.913 234.117 264.072C234.306 264.232 234.549 264.312 234.845 264.312ZM240.187 263.774L241.495 259.717H242.418L240.523 265H239.835L237.921 259.717H238.844L240.187 263.774ZM246.471 265C246.419 264.896 246.376 264.71 246.344 264.443C245.924 264.88 245.423 265.098 244.84 265.098C244.319 265.098 243.891 264.951 243.556 264.658C243.224 264.362 243.058 263.988 243.058 263.535C243.058 262.985 243.266 262.559 243.683 262.256C244.103 261.95 244.692 261.797 245.45 261.797H246.329V261.382C246.329 261.066 246.235 260.815 246.046 260.63C245.857 260.441 245.579 260.347 245.211 260.347C244.889 260.347 244.618 260.428 244.4 260.591C244.182 260.754 244.073 260.951 244.073 261.182H243.165C243.165 260.918 243.258 260.664 243.443 260.42C243.632 260.173 243.886 259.977 244.205 259.834C244.527 259.691 244.881 259.619 245.265 259.619C245.873 259.619 246.35 259.772 246.695 260.078C247.04 260.381 247.219 260.799 247.232 261.333V263.765C247.232 264.25 247.294 264.635 247.418 264.922V265H246.471ZM244.972 264.312C245.255 264.312 245.523 264.238 245.777 264.092C246.031 263.945 246.215 263.755 246.329 263.521V262.437H245.621C244.514 262.437 243.961 262.76 243.961 263.408C243.961 263.691 244.055 263.913 244.244 264.072C244.433 264.232 244.675 264.312 244.972 264.312ZM249.63 265H248.727V259.717H249.63V265ZM248.653 258.315C248.653 258.169 248.697 258.045 248.785 257.944C248.876 257.843 249.01 257.793 249.186 257.793C249.361 257.793 249.495 257.843 249.586 257.944C249.677 258.045 249.723 258.169 249.723 258.315C249.723 258.462 249.677 258.584 249.586 258.682C249.495 258.779 249.361 258.828 249.186 258.828C249.01 258.828 248.876 258.779 248.785 258.682C248.697 258.584 248.653 258.462 248.653 258.315ZM252.062 265H251.158V257.5H252.062V265ZM256.773 265C256.721 264.896 256.679 264.71 256.646 264.443C256.227 264.88 255.725 265.098 255.143 265.098C254.622 265.098 254.194 264.951 253.858 264.658C253.526 264.362 253.36 263.988 253.36 263.535C253.36 262.985 253.569 262.559 253.985 262.256C254.405 261.95 254.994 261.797 255.753 261.797H256.632V261.382C256.632 261.066 256.537 260.815 256.349 260.63C256.16 260.441 255.882 260.347 255.514 260.347C255.191 260.347 254.921 260.428 254.703 260.591C254.485 260.754 254.376 260.951 254.376 261.182H253.468C253.468 260.918 253.561 260.664 253.746 260.42C253.935 260.173 254.189 259.977 254.508 259.834C254.83 259.691 255.183 259.619 255.567 259.619C256.176 259.619 256.653 259.772 256.998 260.078C257.343 260.381 257.522 260.799 257.535 261.333V263.765C257.535 264.25 257.597 264.635 257.721 264.922V265H256.773ZM255.274 264.312C255.558 264.312 255.826 264.238 256.08 264.092C256.334 263.945 256.518 263.755 256.632 263.521V262.437H255.924C254.817 262.437 254.264 262.76 254.264 263.408C254.264 263.691 254.358 263.913 254.547 264.072C254.736 264.232 254.978 264.312 255.274 264.312ZM263.424 262.417C263.424 263.224 263.238 263.874 262.867 264.365C262.496 264.854 261.998 265.098 261.373 265.098C260.706 265.098 260.19 264.862 259.825 264.39L259.781 265H258.951V257.5H259.854V260.298C260.219 259.845 260.722 259.619 261.363 259.619C262.005 259.619 262.507 259.862 262.872 260.347C263.24 260.832 263.424 261.496 263.424 262.339V262.417ZM262.521 262.314C262.521 261.699 262.402 261.224 262.164 260.889C261.926 260.553 261.585 260.386 261.139 260.386C260.543 260.386 260.115 260.662 259.854 261.216V263.501C260.131 264.054 260.562 264.331 261.148 264.331C261.581 264.331 261.918 264.163 262.159 263.828C262.4 263.493 262.521 262.988 262.521 262.314ZM265.548 265H264.645V257.5H265.548V265ZM269.19 265.098C268.474 265.098 267.892 264.863 267.442 264.395C266.993 263.923 266.769 263.293 266.769 262.505V262.339C266.769 261.815 266.868 261.348 267.066 260.938C267.268 260.524 267.548 260.202 267.906 259.971C268.268 259.736 268.658 259.619 269.078 259.619C269.765 259.619 270.299 259.845 270.68 260.298C271.061 260.75 271.251 261.398 271.251 262.241V262.617H267.672C267.685 263.138 267.836 263.56 268.126 263.882C268.419 264.201 268.79 264.36 269.239 264.36C269.558 264.36 269.828 264.295 270.05 264.165C270.271 264.035 270.465 263.862 270.631 263.647L271.183 264.077C270.74 264.757 270.076 265.098 269.19 265.098ZM269.078 260.361C268.714 260.361 268.408 260.495 268.16 260.762C267.913 261.025 267.76 261.396 267.701 261.875H270.348V261.807C270.322 261.348 270.198 260.993 269.977 260.742C269.755 260.488 269.456 260.361 269.078 260.361Z" fill="#128100"/>
<path d="M197.694 285H196.791V279.717H197.694V285ZM196.718 278.315C196.718 278.169 196.762 278.045 196.85 277.944C196.941 277.843 197.074 277.793 197.25 277.793C197.426 277.793 197.559 277.843 197.65 277.944C197.742 278.045 197.787 278.169 197.787 278.315C197.787 278.462 197.742 278.584 197.65 278.682C197.559 278.779 197.426 278.828 197.25 278.828C197.074 278.828 196.941 278.779 196.85 278.682C196.762 278.584 196.718 278.462 196.718 278.315ZM199.999 279.717L200.028 280.381C200.432 279.873 200.959 279.619 201.61 279.619C202.727 279.619 203.29 280.249 203.3 281.509V285H202.396V281.504C202.393 281.123 202.305 280.841 202.133 280.659C201.964 280.477 201.698 280.386 201.337 280.386C201.044 280.386 200.787 280.464 200.565 280.62C200.344 280.776 200.172 280.981 200.048 281.235V285H199.145V279.717H199.999ZM206.781 284.36C207.104 284.36 207.385 284.263 207.626 284.067C207.867 283.872 208 283.628 208.026 283.335H208.881C208.865 283.638 208.76 283.926 208.568 284.199C208.376 284.473 208.119 284.691 207.797 284.854C207.478 285.016 207.139 285.098 206.781 285.098C206.062 285.098 205.489 284.858 205.062 284.38C204.639 283.898 204.428 283.241 204.428 282.407V282.256C204.428 281.742 204.522 281.284 204.711 280.884C204.9 280.483 205.17 280.173 205.521 279.951C205.876 279.73 206.295 279.619 206.776 279.619C207.369 279.619 207.86 279.797 208.251 280.151C208.645 280.506 208.855 280.967 208.881 281.533H208.026C208 281.191 207.87 280.911 207.636 280.693C207.405 280.472 207.118 280.361 206.776 280.361C206.317 280.361 205.961 280.527 205.707 280.859C205.456 281.188 205.331 281.665 205.331 282.29V282.461C205.331 283.07 205.456 283.538 205.707 283.867C205.958 284.196 206.316 284.36 206.781 284.36ZM212.45 280.527C212.313 280.505 212.165 280.493 212.006 280.493C211.413 280.493 211.011 280.745 210.8 281.25V285H209.896V279.717H210.775L210.79 280.327C211.086 279.855 211.506 279.619 212.05 279.619C212.226 279.619 212.359 279.642 212.45 279.688V280.527ZM215.38 285.098C214.664 285.098 214.081 284.863 213.632 284.395C213.183 283.923 212.958 283.293 212.958 282.505V282.339C212.958 281.815 213.057 281.348 213.256 280.938C213.458 280.524 213.738 280.202 214.096 279.971C214.457 279.736 214.848 279.619 215.268 279.619C215.954 279.619 216.488 279.845 216.869 280.298C217.25 280.75 217.44 281.398 217.44 282.241V282.617H213.861C213.874 283.138 214.026 283.56 214.315 283.882C214.608 284.201 214.979 284.36 215.429 284.36C215.748 284.36 216.018 284.295 216.239 284.165C216.461 284.035 216.654 283.862 216.82 283.647L217.372 284.077C216.929 284.757 216.265 285.098 215.38 285.098ZM215.268 280.361C214.903 280.361 214.597 280.495 214.35 280.762C214.102 281.025 213.949 281.396 213.891 281.875H216.537V281.807C216.511 281.348 216.387 280.993 216.166 280.742C215.945 280.488 215.645 280.361 215.268 280.361ZM221.752 285C221.7 284.896 221.658 284.71 221.625 284.443C221.205 284.88 220.704 285.098 220.121 285.098C219.6 285.098 219.172 284.951 218.837 284.658C218.505 284.362 218.339 283.988 218.339 283.535C218.339 282.985 218.547 282.559 218.964 282.256C219.384 281.95 219.973 281.797 220.731 281.797H221.61V281.382C221.61 281.066 221.516 280.815 221.327 280.63C221.138 280.441 220.86 280.347 220.492 280.347C220.17 280.347 219.9 280.428 219.682 280.591C219.464 280.754 219.354 280.951 219.354 281.182H218.446C218.446 280.918 218.539 280.664 218.725 280.42C218.913 280.173 219.167 279.977 219.486 279.834C219.809 279.691 220.162 279.619 220.546 279.619C221.155 279.619 221.632 279.772 221.977 280.078C222.322 280.381 222.501 280.799 222.514 281.333V283.765C222.514 284.25 222.576 284.635 222.699 284.922V285H221.752ZM220.253 284.312C220.536 284.312 220.805 284.238 221.059 284.092C221.312 283.945 221.496 283.755 221.61 283.521V282.437H220.902C219.796 282.437 219.242 282.76 219.242 283.408C219.242 283.691 219.337 283.913 219.525 284.072C219.714 284.232 219.957 284.312 220.253 284.312ZM227.006 283.599C227.006 283.354 226.913 283.166 226.728 283.032C226.545 282.896 226.225 282.778 225.766 282.681C225.31 282.583 224.947 282.466 224.677 282.329C224.41 282.192 224.211 282.03 224.081 281.841C223.954 281.652 223.891 281.427 223.891 281.167C223.891 280.734 224.073 280.368 224.438 280.068C224.805 279.769 225.274 279.619 225.844 279.619C226.443 279.619 226.928 279.774 227.299 280.083C227.673 280.392 227.86 280.788 227.86 281.27H226.952C226.952 281.022 226.846 280.809 226.635 280.63C226.426 280.451 226.163 280.361 225.844 280.361C225.515 280.361 225.258 280.433 225.072 280.576C224.887 280.719 224.794 280.907 224.794 281.138C224.794 281.356 224.88 281.52 225.053 281.631C225.225 281.742 225.536 281.847 225.985 281.948C226.438 282.049 226.804 282.17 227.084 282.31C227.364 282.45 227.571 282.619 227.704 282.817C227.841 283.013 227.909 283.252 227.909 283.535C227.909 284.007 227.72 284.386 227.343 284.673C226.965 284.956 226.475 285.098 225.873 285.098C225.45 285.098 225.076 285.023 224.75 284.873C224.424 284.723 224.169 284.515 223.983 284.248C223.801 283.978 223.71 283.687 223.71 283.374H224.613C224.63 283.677 224.75 283.918 224.975 284.097C225.202 284.272 225.502 284.36 225.873 284.36C226.215 284.36 226.488 284.292 226.693 284.155C226.902 284.015 227.006 283.83 227.006 283.599ZM231.278 285.098C230.562 285.098 229.979 284.863 229.53 284.395C229.081 283.923 228.856 283.293 228.856 282.505V282.339C228.856 281.815 228.956 281.348 229.154 280.938C229.356 280.524 229.636 280.202 229.994 279.971C230.355 279.736 230.746 279.619 231.166 279.619C231.853 279.619 232.387 279.845 232.768 280.298C233.148 280.75 233.339 281.398 233.339 282.241V282.617H229.76C229.773 283.138 229.924 283.56 230.214 283.882C230.507 284.201 230.878 284.36 231.327 284.36C231.646 284.36 231.916 284.295 232.138 284.165C232.359 284.035 232.553 283.862 232.719 283.647L233.271 284.077C232.828 284.757 232.164 285.098 231.278 285.098ZM231.166 280.361C230.801 280.361 230.495 280.495 230.248 280.762C230.001 281.025 229.848 281.396 229.789 281.875H232.436V281.807C232.41 281.348 232.286 280.993 232.064 280.742C231.843 280.488 231.544 280.361 231.166 280.361ZM234.169 282.314C234.169 281.504 234.361 280.853 234.745 280.361C235.129 279.867 235.632 279.619 236.254 279.619C236.872 279.619 237.362 279.831 237.724 280.254V277.5H238.627V285H237.797L237.753 284.434C237.392 284.876 236.889 285.098 236.244 285.098C235.632 285.098 235.132 284.847 234.745 284.346C234.361 283.844 234.169 283.19 234.169 282.383V282.314ZM235.072 282.417C235.072 283.016 235.196 283.485 235.443 283.823C235.691 284.162 236.033 284.331 236.469 284.331C237.042 284.331 237.46 284.074 237.724 283.56V281.133C237.453 280.635 237.038 280.386 236.479 280.386C236.036 280.386 235.691 280.557 235.443 280.898C235.196 281.24 235.072 281.746 235.072 282.417Z" fill="#FF0000"/>
<path d="M245.067 280.527C244.931 280.505 244.783 280.493 244.623 280.493C244.031 280.493 243.629 280.745 243.417 281.25V285H242.514V279.717H243.393L243.407 280.327C243.703 279.855 244.123 279.619 244.667 279.619C244.843 279.619 244.976 279.642 245.067 279.688V280.527ZM245.565 282.31C245.565 281.792 245.666 281.326 245.868 280.913C246.073 280.5 246.356 280.181 246.718 279.956C247.082 279.731 247.497 279.619 247.963 279.619C248.682 279.619 249.263 279.868 249.706 280.366C250.152 280.864 250.375 281.527 250.375 282.354V282.417C250.375 282.931 250.276 283.394 250.077 283.804C249.882 284.211 249.6 284.528 249.232 284.756C248.868 284.984 248.448 285.098 247.973 285.098C247.257 285.098 246.675 284.849 246.229 284.351C245.787 283.853 245.565 283.193 245.565 282.373V282.31ZM246.474 282.417C246.474 283.003 246.609 283.473 246.879 283.828C247.152 284.183 247.517 284.36 247.973 284.36C248.432 284.36 248.796 284.181 249.066 283.823C249.337 283.462 249.472 282.957 249.472 282.31C249.472 281.73 249.333 281.261 249.057 280.903C248.783 280.542 248.419 280.361 247.963 280.361C247.517 280.361 247.157 280.539 246.884 280.894C246.61 281.248 246.474 281.756 246.474 282.417ZM251.269 282.31C251.269 281.792 251.369 281.326 251.571 280.913C251.776 280.5 252.06 280.181 252.421 279.956C252.785 279.731 253.201 279.619 253.666 279.619C254.385 279.619 254.966 279.868 255.409 280.366C255.855 280.864 256.078 281.527 256.078 282.354V282.417C256.078 282.931 255.979 283.394 255.78 283.804C255.585 284.211 255.303 284.528 254.936 284.756C254.571 284.984 254.151 285.098 253.676 285.098C252.96 285.098 252.379 284.849 251.933 284.351C251.49 283.853 251.269 283.193 251.269 282.373V282.31ZM252.177 282.417C252.177 283.003 252.312 283.473 252.582 283.828C252.855 284.183 253.22 284.36 253.676 284.36C254.135 284.36 254.499 284.181 254.77 283.823C255.04 283.462 255.175 282.957 255.175 282.31C255.175 281.73 255.036 281.261 254.76 280.903C254.486 280.542 254.122 280.361 253.666 280.361C253.22 280.361 252.86 280.539 252.587 280.894C252.313 281.248 252.177 281.756 252.177 282.417ZM258.061 279.717L258.085 280.303C258.472 279.847 258.995 279.619 259.652 279.619C260.391 279.619 260.894 279.902 261.161 280.469C261.337 280.215 261.565 280.01 261.845 279.854C262.128 279.697 262.462 279.619 262.846 279.619C264.005 279.619 264.594 280.233 264.613 281.46V285H263.71V281.514C263.71 281.136 263.624 280.854 263.451 280.669C263.279 280.48 262.989 280.386 262.582 280.386C262.247 280.386 261.968 280.487 261.747 280.688C261.526 280.887 261.397 281.156 261.361 281.494V285H260.453V281.538C260.453 280.77 260.077 280.386 259.325 280.386C258.733 280.386 258.327 280.638 258.109 281.143V285H257.206V279.717H258.061ZM265.653 279.893L265.141 279.541C265.443 279.118 265.6 278.672 265.609 278.203V277.5H266.503V278.135C266.5 278.46 266.418 278.786 266.259 279.111C266.103 279.434 265.901 279.694 265.653 279.893ZM270.121 283.599C270.121 283.354 270.028 283.166 269.843 283.032C269.66 282.896 269.34 282.778 268.881 282.681C268.425 282.583 268.062 282.466 267.792 282.329C267.525 282.192 267.326 282.03 267.196 281.841C267.069 281.652 267.006 281.427 267.006 281.167C267.006 280.734 267.188 280.368 267.553 280.068C267.921 279.769 268.389 279.619 268.959 279.619C269.558 279.619 270.043 279.774 270.414 280.083C270.788 280.392 270.976 280.788 270.976 281.27H270.067C270.067 281.022 269.962 280.809 269.75 280.63C269.542 280.451 269.278 280.361 268.959 280.361C268.63 280.361 268.373 280.433 268.188 280.576C268.002 280.719 267.909 280.907 267.909 281.138C267.909 281.356 267.995 281.52 268.168 281.631C268.34 281.742 268.651 281.847 269.101 281.948C269.553 282.049 269.919 282.17 270.199 282.31C270.479 282.45 270.686 282.619 270.819 282.817C270.956 283.013 271.024 283.252 271.024 283.535C271.024 284.007 270.836 284.386 270.458 284.673C270.08 284.956 269.59 285.098 268.988 285.098C268.565 285.098 268.191 285.023 267.865 284.873C267.54 284.723 267.284 284.515 267.099 284.248C266.916 283.978 266.825 283.687 266.825 283.374H267.729C267.745 283.677 267.865 283.918 268.09 284.097C268.318 284.272 268.617 284.36 268.988 284.36C269.33 284.36 269.604 284.292 269.809 284.155C270.017 284.015 270.121 283.83 270.121 283.599ZM279.145 282.417C279.145 283.221 278.961 283.869 278.593 284.36C278.225 284.852 277.727 285.098 277.099 285.098C276.457 285.098 275.953 284.894 275.585 284.487V287.031H274.682V279.717H275.507L275.551 280.303C275.919 279.847 276.43 279.619 277.084 279.619C277.719 279.619 278.22 279.858 278.588 280.337C278.959 280.815 279.145 281.481 279.145 282.334V282.417ZM278.241 282.314C278.241 281.719 278.114 281.248 277.86 280.903C277.606 280.558 277.258 280.386 276.815 280.386C276.269 280.386 275.858 280.628 275.585 281.113V283.638C275.855 284.119 276.269 284.36 276.825 284.36C277.258 284.36 277.602 284.189 277.855 283.848C278.113 283.503 278.241 282.992 278.241 282.314ZM282.851 280.527C282.714 280.505 282.566 280.493 282.406 280.493C281.814 280.493 281.412 280.745 281.2 281.25V285H280.297V279.717H281.176L281.19 280.327C281.487 279.855 281.907 279.619 282.45 279.619C282.626 279.619 282.759 279.642 282.851 279.688V280.527ZM284.667 285H283.764V279.717H284.667V285ZM283.69 278.315C283.69 278.169 283.734 278.045 283.822 277.944C283.913 277.843 284.047 277.793 284.223 277.793C284.398 277.793 284.532 277.843 284.623 277.944C284.714 278.045 284.76 278.169 284.76 278.315C284.76 278.462 284.714 278.584 284.623 278.682C284.532 278.779 284.398 278.828 284.223 278.828C284.047 278.828 283.913 278.779 283.822 278.682C283.734 278.584 283.69 278.462 283.69 278.315ZM288.236 284.36C288.559 284.36 288.84 284.263 289.081 284.067C289.322 283.872 289.455 283.628 289.481 283.335H290.336C290.32 283.638 290.215 283.926 290.023 284.199C289.831 284.473 289.574 284.691 289.252 284.854C288.933 285.016 288.594 285.098 288.236 285.098C287.517 285.098 286.944 284.858 286.518 284.38C286.094 283.898 285.883 283.241 285.883 282.407V282.256C285.883 281.742 285.977 281.284 286.166 280.884C286.355 280.483 286.625 280.173 286.977 279.951C287.331 279.73 287.75 279.619 288.231 279.619C288.824 279.619 289.315 279.797 289.706 280.151C290.1 280.506 290.31 280.967 290.336 281.533H289.481C289.455 281.191 289.325 280.911 289.091 280.693C288.86 280.472 288.573 280.361 288.231 280.361C287.772 280.361 287.416 280.527 287.162 280.859C286.911 281.188 286.786 281.665 286.786 282.29V282.461C286.786 283.07 286.911 283.538 287.162 283.867C287.413 284.196 287.771 284.36 288.236 284.36ZM293.544 285.098C292.828 285.098 292.245 284.863 291.796 284.395C291.347 283.923 291.122 283.293 291.122 282.505V282.339C291.122 281.815 291.221 281.348 291.42 280.938C291.622 280.524 291.902 280.202 292.26 279.971C292.621 279.736 293.012 279.619 293.432 279.619C294.118 279.619 294.652 279.845 295.033 280.298C295.414 280.75 295.604 281.398 295.604 282.241V282.617H292.025C292.038 283.138 292.19 283.56 292.479 283.882C292.772 284.201 293.144 284.36 293.593 284.36C293.912 284.36 294.182 284.295 294.403 284.165C294.625 284.035 294.818 283.862 294.984 283.647L295.536 284.077C295.093 284.757 294.429 285.098 293.544 285.098ZM293.432 280.361C293.067 280.361 292.761 280.495 292.514 280.762C292.266 281.025 292.113 281.396 292.055 281.875H294.701V281.807C294.675 281.348 294.551 280.993 294.33 280.742C294.109 280.488 293.809 280.361 293.432 280.361Z" fill="black"/>
<line x1="54" y1="247.5" x2="165" y2="247.5" stroke="#CBCBCB"/>
<line x1="53" y1="310.5" x2="446" y2="310.5" stroke="#CBCBCB"/>
<path d="M76.334 242.08H80.377V243H75.2031V234.469H76.334V242.08ZM85.4043 243C85.3418 242.875 85.291 242.652 85.252 242.332C84.748 242.855 84.1465 243.117 83.4473 243.117C82.8223 243.117 82.3086 242.941 81.9062 242.59C81.5078 242.234 81.3086 241.785 81.3086 241.242C81.3086 240.582 81.5586 240.07 82.0586 239.707C82.5625 239.34 83.2695 239.156 84.1797 239.156H85.2344V238.658C85.2344 238.279 85.1211 237.979 84.8945 237.756C84.668 237.529 84.334 237.416 83.8926 237.416C83.5059 237.416 83.1816 237.514 82.9199 237.709C82.6582 237.904 82.5273 238.141 82.5273 238.418H81.4375C81.4375 238.102 81.5488 237.797 81.7715 237.504C81.998 237.207 82.3027 236.973 82.6855 236.801C83.0723 236.629 83.4961 236.543 83.957 236.543C84.6875 236.543 85.2598 236.727 85.6738 237.094C86.0879 237.457 86.3027 237.959 86.3184 238.6V241.518C86.3184 242.1 86.3926 242.562 86.541 242.906V243H85.4043ZM83.6055 242.174C83.9453 242.174 84.2676 242.086 84.5723 241.91C84.877 241.734 85.0977 241.506 85.2344 241.225V239.924H84.3848C83.0566 239.924 82.3926 240.312 82.3926 241.09C82.3926 241.43 82.5059 241.695 82.7324 241.887C82.959 242.078 83.25 242.174 83.6055 242.174ZM89.4883 235.125V236.66H90.6719V237.498H89.4883V241.43C89.4883 241.684 89.541 241.875 89.6465 242.004C89.752 242.129 89.9316 242.191 90.1855 242.191C90.3105 242.191 90.4824 242.168 90.7012 242.121V243C90.416 243.078 90.1387 243.117 89.8691 243.117C89.3848 243.117 89.0195 242.971 88.7734 242.678C88.5273 242.385 88.4043 241.969 88.4043 241.43V237.498H87.25V236.66H88.4043V235.125H89.4883ZM94.5742 243.117C93.7148 243.117 93.0156 242.836 92.4766 242.273C91.9375 241.707 91.668 240.951 91.668 240.006V239.807C91.668 239.178 91.7871 238.617 92.0254 238.125C92.2676 237.629 92.6035 237.242 93.0332 236.965C93.4668 236.684 93.9355 236.543 94.4395 236.543C95.2637 236.543 95.9043 236.814 96.3613 237.357C96.8184 237.9 97.0469 238.678 97.0469 239.689V240.141H92.752C92.7676 240.766 92.9492 241.271 93.2969 241.658C93.6484 242.041 94.0938 242.232 94.6328 242.232C95.0156 242.232 95.3398 242.154 95.6055 241.998C95.8711 241.842 96.1035 241.635 96.3027 241.377L96.9648 241.893C96.4336 242.709 95.6367 243.117 94.5742 243.117ZM94.4395 237.434C94.002 237.434 93.6348 237.594 93.3379 237.914C93.041 238.23 92.8574 238.676 92.7871 239.25H95.9629V239.168C95.9316 238.617 95.7832 238.191 95.5176 237.891C95.252 237.586 94.8926 237.434 94.4395 237.434ZM101.998 241.318C101.998 241.025 101.887 240.799 101.664 240.639C101.445 240.475 101.061 240.334 100.51 240.217C99.9629 240.1 99.5273 239.959 99.2031 239.795C98.8828 239.631 98.6445 239.436 98.4883 239.209C98.3359 238.982 98.2598 238.713 98.2598 238.4C98.2598 237.881 98.4785 237.441 98.916 237.082C99.3574 236.723 99.9199 236.543 100.604 236.543C101.322 236.543 101.904 236.729 102.35 237.1C102.799 237.471 103.023 237.945 103.023 238.523H101.934C101.934 238.227 101.807 237.971 101.553 237.756C101.303 237.541 100.986 237.434 100.604 237.434C100.209 237.434 99.9004 237.52 99.6777 237.691C99.4551 237.863 99.3438 238.088 99.3438 238.365C99.3438 238.627 99.4473 238.824 99.6543 238.957C99.8613 239.09 100.234 239.217 100.773 239.338C101.316 239.459 101.756 239.604 102.092 239.771C102.428 239.939 102.676 240.143 102.836 240.381C103 240.615 103.082 240.902 103.082 241.242C103.082 241.809 102.855 242.264 102.402 242.607C101.949 242.947 101.361 243.117 100.639 243.117C100.131 243.117 99.6816 243.027 99.291 242.848C98.9004 242.668 98.5938 242.418 98.3711 242.098C98.1523 241.773 98.043 241.424 98.043 241.049H99.127C99.1465 241.412 99.291 241.701 99.5605 241.916C99.834 242.127 100.193 242.232 100.639 242.232C101.049 242.232 101.377 242.15 101.623 241.986C101.873 241.818 101.998 241.596 101.998 241.318ZM111.385 242.373C110.963 242.869 110.344 243.117 109.527 243.117C108.852 243.117 108.336 242.922 107.98 242.531C107.629 242.137 107.451 241.555 107.447 240.785V236.66H108.531V240.756C108.531 241.717 108.922 242.197 109.703 242.197C110.531 242.197 111.082 241.889 111.355 241.271V236.66H112.439V243H111.408L111.385 242.373ZM119.447 239.9C119.447 240.865 119.227 241.643 118.785 242.232C118.344 242.822 117.746 243.117 116.992 243.117C116.223 243.117 115.617 242.873 115.176 242.385V245.438H114.092V236.66H115.082L115.135 237.363C115.576 236.816 116.189 236.543 116.975 236.543C117.736 236.543 118.338 236.83 118.779 237.404C119.225 237.979 119.447 238.777 119.447 239.801V239.9ZM118.363 239.777C118.363 239.062 118.211 238.498 117.906 238.084C117.602 237.67 117.184 237.463 116.652 237.463C115.996 237.463 115.504 237.754 115.176 238.336V241.365C115.5 241.943 115.996 242.232 116.664 242.232C117.184 242.232 117.596 242.027 117.9 241.617C118.209 241.203 118.363 240.59 118.363 239.777ZM120.566 239.777C120.566 238.805 120.797 238.023 121.258 237.434C121.719 236.84 122.322 236.543 123.068 236.543C123.811 236.543 124.398 236.797 124.832 237.305V234H125.916V243H124.92L124.867 242.32C124.434 242.852 123.83 243.117 123.057 243.117C122.322 243.117 121.723 242.816 121.258 242.215C120.797 241.613 120.566 240.828 120.566 239.859V239.777ZM121.65 239.9C121.65 240.619 121.799 241.182 122.096 241.588C122.393 241.994 122.803 242.197 123.326 242.197C124.014 242.197 124.516 241.889 124.832 241.271V238.359C124.508 237.762 124.01 237.463 123.338 237.463C122.807 237.463 122.393 237.668 122.096 238.078C121.799 238.488 121.65 239.096 121.65 239.9ZM131.518 243C131.455 242.875 131.404 242.652 131.365 242.332C130.861 242.855 130.26 243.117 129.561 243.117C128.936 243.117 128.422 242.941 128.02 242.59C127.621 242.234 127.422 241.785 127.422 241.242C127.422 240.582 127.672 240.07 128.172 239.707C128.676 239.34 129.383 239.156 130.293 239.156H131.348V238.658C131.348 238.279 131.234 237.979 131.008 237.756C130.781 237.529 130.447 237.416 130.006 237.416C129.619 237.416 129.295 237.514 129.033 237.709C128.771 237.904 128.641 238.141 128.641 238.418H127.551C127.551 238.102 127.662 237.797 127.885 237.504C128.111 237.207 128.416 236.973 128.799 236.801C129.186 236.629 129.609 236.543 130.07 236.543C130.801 236.543 131.373 236.727 131.787 237.094C132.201 237.457 132.416 237.959 132.432 238.6V241.518C132.432 242.1 132.506 242.562 132.654 242.906V243H131.518ZM129.719 242.174C130.059 242.174 130.381 242.086 130.686 241.91C130.99 241.734 131.211 241.506 131.348 241.225V239.924H130.498C129.17 239.924 128.506 240.312 128.506 241.09C128.506 241.43 128.619 241.695 128.846 241.887C129.072 242.078 129.363 242.174 129.719 242.174ZM135.602 235.125V236.66H136.785V237.498H135.602V241.43C135.602 241.684 135.654 241.875 135.76 242.004C135.865 242.129 136.045 242.191 136.299 242.191C136.424 242.191 136.596 242.168 136.814 242.121V243C136.529 243.078 136.252 243.117 135.982 243.117C135.498 243.117 135.133 242.971 134.887 242.678C134.641 242.385 134.518 241.969 134.518 241.43V237.498H133.363V236.66H134.518V235.125H135.602ZM140.688 243.117C139.828 243.117 139.129 242.836 138.59 242.273C138.051 241.707 137.781 240.951 137.781 240.006V239.807C137.781 239.178 137.9 238.617 138.139 238.125C138.381 237.629 138.717 237.242 139.146 236.965C139.58 236.684 140.049 236.543 140.553 236.543C141.377 236.543 142.018 236.814 142.475 237.357C142.932 237.9 143.16 238.678 143.16 239.689V240.141H138.865C138.881 240.766 139.062 241.271 139.41 241.658C139.762 242.041 140.207 242.232 140.746 242.232C141.129 242.232 141.453 242.154 141.719 241.998C141.984 241.842 142.217 241.635 142.416 241.377L143.078 241.893C142.547 242.709 141.75 243.117 140.688 243.117ZM140.553 237.434C140.115 237.434 139.748 237.594 139.451 237.914C139.154 238.23 138.971 238.676 138.9 239.25H142.076V239.168C142.045 238.617 141.896 238.191 141.631 237.891C141.365 237.586 141.006 237.434 140.553 237.434ZM148.111 241.318C148.111 241.025 148 240.799 147.777 240.639C147.559 240.475 147.174 240.334 146.623 240.217C146.076 240.1 145.641 239.959 145.316 239.795C144.996 239.631 144.758 239.436 144.602 239.209C144.449 238.982 144.373 238.713 144.373 238.4C144.373 237.881 144.592 237.441 145.029 237.082C145.471 236.723 146.033 236.543 146.717 236.543C147.436 236.543 148.018 236.729 148.463 237.1C148.912 237.471 149.137 237.945 149.137 238.523H148.047C148.047 238.227 147.92 237.971 147.666 237.756C147.416 237.541 147.1 237.434 146.717 237.434C146.322 237.434 146.014 237.52 145.791 237.691C145.568 237.863 145.457 238.088 145.457 238.365C145.457 238.627 145.561 238.824 145.768 238.957C145.975 239.09 146.348 239.217 146.887 239.338C147.43 239.459 147.869 239.604 148.205 239.771C148.541 239.939 148.789 240.143 148.949 240.381C149.113 240.615 149.195 240.902 149.195 241.242C149.195 241.809 148.969 242.264 148.516 242.607C148.062 242.947 147.475 243.117 146.752 243.117C146.244 243.117 145.795 243.027 145.404 242.848C145.014 242.668 144.707 242.418 144.484 242.098C144.266 241.773 144.156 241.424 144.156 241.049H145.24C145.26 241.412 145.404 241.701 145.674 241.916C145.947 242.127 146.307 242.232 146.752 242.232C147.162 242.232 147.49 242.15 147.736 241.986C147.986 241.818 148.111 241.596 148.111 241.318Z" fill="black"/>
<path d="M59.7383 259.717L59.7676 260.381C60.1712 259.873 60.6986 259.619 61.3496 259.619C62.4661 259.619 63.0293 260.249 63.0391 261.509V265H62.1357V261.504C62.1325 261.123 62.0446 260.841 61.8721 260.659C61.7028 260.477 61.4375 260.386 61.0762 260.386C60.7832 260.386 60.526 260.464 60.3047 260.62C60.0833 260.776 59.9108 260.981 59.7871 261.235V265H58.8838V259.717H59.7383ZM66.5938 265.098C65.8776 265.098 65.2949 264.863 64.8457 264.395C64.3965 263.923 64.1719 263.293 64.1719 262.505V262.339C64.1719 261.815 64.2712 261.348 64.4697 260.938C64.6715 260.524 64.9515 260.202 65.3096 259.971C65.6709 259.736 66.0615 259.619 66.4814 259.619C67.1683 259.619 67.7021 259.845 68.083 260.298C68.4639 260.75 68.6543 261.398 68.6543 262.241V262.617H65.0752C65.0882 263.138 65.2396 263.56 65.5293 263.882C65.8223 264.201 66.1934 264.36 66.6426 264.36C66.9616 264.36 67.2318 264.295 67.4531 264.165C67.6745 264.035 67.8682 263.862 68.0342 263.647L68.5859 264.077C68.1432 264.757 67.4792 265.098 66.5938 265.098ZM66.4814 260.361C66.1169 260.361 65.8109 260.495 65.5635 260.762C65.3161 261.025 65.1631 261.396 65.1045 261.875H67.751V261.807C67.7249 261.348 67.6012 260.993 67.3799 260.742C67.1585 260.488 66.859 260.361 66.4814 260.361ZM74.3818 263.755L75.3975 259.717H76.3008L74.7627 265H74.0303L72.7461 260.996L71.4961 265H70.7637L69.2305 259.717H70.1289L71.1689 263.672L72.3994 259.717H73.127L74.3818 263.755Z" fill="#128100"/>
<path d="M82.2578 260.527C82.1211 260.505 81.973 260.493 81.8135 260.493C81.221 260.493 80.819 260.745 80.6074 261.25V265H79.7041V259.717H80.583L80.5977 260.327C80.8939 259.855 81.3138 259.619 81.8574 259.619C82.0332 259.619 82.1667 259.642 82.2578 259.688V260.527ZM85.1875 265.098C84.4714 265.098 83.8887 264.863 83.4395 264.395C82.9902 263.923 82.7656 263.293 82.7656 262.505V262.339C82.7656 261.815 82.8649 261.348 83.0635 260.938C83.2653 260.524 83.5452 260.202 83.9033 259.971C84.2646 259.736 84.6553 259.619 85.0752 259.619C85.762 259.619 86.2959 259.845 86.6768 260.298C87.0576 260.75 87.248 261.398 87.248 262.241V262.617H83.6689C83.682 263.138 83.8333 263.56 84.123 263.882C84.416 264.201 84.7871 264.36 85.2363 264.36C85.5553 264.36 85.8255 264.295 86.0469 264.165C86.2682 264.035 86.4619 263.862 86.6279 263.647L87.1797 264.077C86.737 264.757 86.0729 265.098 85.1875 265.098ZM85.0752 260.361C84.7106 260.361 84.4046 260.495 84.1572 260.762C83.9098 261.025 83.7568 261.396 83.6982 261.875H86.3447V261.807C86.3187 261.348 86.195 260.993 85.9736 260.742C85.7523 260.488 85.4528 260.361 85.0752 260.361ZM89.9727 263.774L91.2812 259.717H92.2041L90.3096 265H89.6211L87.707 259.717H88.6299L89.9727 263.774ZM94.0547 265H93.1514V259.717H94.0547V265ZM93.0781 258.315C93.0781 258.169 93.1221 258.045 93.21 257.944C93.3011 257.843 93.4346 257.793 93.6104 257.793C93.7861 257.793 93.9196 257.843 94.0107 257.944C94.1019 258.045 94.1475 258.169 94.1475 258.315C94.1475 258.462 94.1019 258.584 94.0107 258.682C93.9196 258.779 93.7861 258.828 93.6104 258.828C93.4346 258.828 93.3011 258.779 93.21 258.682C93.1221 258.584 93.0781 258.462 93.0781 258.315ZM97.6973 265.098C96.9811 265.098 96.3984 264.863 95.9492 264.395C95.5 263.923 95.2754 263.293 95.2754 262.505V262.339C95.2754 261.815 95.3747 261.348 95.5732 260.938C95.7751 260.524 96.055 260.202 96.4131 259.971C96.7744 259.736 97.165 259.619 97.585 259.619C98.2718 259.619 98.8057 259.845 99.1865 260.298C99.5674 260.75 99.7578 261.398 99.7578 262.241V262.617H96.1787C96.1917 263.138 96.3431 263.56 96.6328 263.882C96.9258 264.201 97.2969 264.36 97.7461 264.36C98.0651 264.36 98.3353 264.295 98.5566 264.165C98.778 264.035 98.9717 263.862 99.1377 263.647L99.6895 264.077C99.2467 264.757 98.5827 265.098 97.6973 265.098ZM97.585 260.361C97.2204 260.361 96.9144 260.495 96.667 260.762C96.4196 261.025 96.2666 261.396 96.208 261.875H98.8545V261.807C98.8285 261.348 98.7048 260.993 98.4834 260.742C98.262 260.488 97.9626 260.361 97.585 260.361ZM105.485 263.755L106.501 259.717H107.404L105.866 265H105.134L103.85 260.996L102.6 265H101.867L100.334 259.717H101.232L102.272 263.672L103.503 259.717H104.23L105.485 263.755ZM111.403 263.599C111.403 263.354 111.311 263.166 111.125 263.032C110.943 262.896 110.622 262.778 110.163 262.681C109.707 262.583 109.344 262.466 109.074 262.329C108.807 262.192 108.609 262.03 108.479 261.841C108.352 261.652 108.288 261.427 108.288 261.167C108.288 260.734 108.47 260.368 108.835 260.068C109.203 259.769 109.672 259.619 110.241 259.619C110.84 259.619 111.325 259.774 111.696 260.083C112.071 260.392 112.258 260.788 112.258 261.27H111.35C111.35 261.022 111.244 260.809 111.032 260.63C110.824 260.451 110.56 260.361 110.241 260.361C109.912 260.361 109.655 260.433 109.47 260.576C109.284 260.719 109.191 260.907 109.191 261.138C109.191 261.356 109.278 261.52 109.45 261.631C109.623 261.742 109.934 261.847 110.383 261.948C110.835 262.049 111.201 262.17 111.481 262.31C111.761 262.45 111.968 262.619 112.102 262.817C112.238 263.013 112.307 263.252 112.307 263.535C112.307 264.007 112.118 264.386 111.74 264.673C111.363 264.956 110.873 265.098 110.271 265.098C109.847 265.098 109.473 265.023 109.147 264.873C108.822 264.723 108.566 264.515 108.381 264.248C108.199 263.978 108.107 263.687 108.107 263.374H109.011C109.027 263.677 109.147 263.918 109.372 264.097C109.6 264.272 109.899 264.36 110.271 264.36C110.612 264.36 110.886 264.292 111.091 264.155C111.299 264.015 111.403 263.83 111.403 263.599Z" fill="black"/>
<path d="M58.3164 282.314C58.3164 281.504 58.5085 280.853 58.8926 280.361C59.2767 279.867 59.7796 279.619 60.4014 279.619C61.0199 279.619 61.5098 279.831 61.8711 280.254V277.5H62.7744V285H61.9443L61.9004 284.434C61.5391 284.876 61.0361 285.098 60.3916 285.098C59.7796 285.098 59.2799 284.847 58.8926 284.346C58.5085 283.844 58.3164 283.19 58.3164 282.383V282.314ZM59.2197 282.417C59.2197 283.016 59.3434 283.485 59.5908 283.823C59.8382 284.162 60.18 284.331 60.6162 284.331C61.1891 284.331 61.6074 284.074 61.8711 283.56V281.133C61.6009 280.635 61.1859 280.386 60.626 280.386C60.1833 280.386 59.8382 280.557 59.5908 280.898C59.3434 281.24 59.2197 281.746 59.2197 282.417ZM66.373 285.098C65.6569 285.098 65.0742 284.863 64.625 284.395C64.1758 283.923 63.9512 283.293 63.9512 282.505V282.339C63.9512 281.815 64.0505 281.348 64.249 280.938C64.4508 280.524 64.7308 280.202 65.0889 279.971C65.4502 279.736 65.8408 279.619 66.2607 279.619C66.9476 279.619 67.4814 279.845 67.8623 280.298C68.2432 280.75 68.4336 281.398 68.4336 282.241V282.617H64.8545C64.8675 283.138 65.0189 283.56 65.3086 283.882C65.6016 284.201 65.9727 284.36 66.4219 284.36C66.7409 284.36 67.0111 284.295 67.2324 284.165C67.4538 284.035 67.6475 283.862 67.8135 283.647L68.3652 284.077C67.9225 284.757 67.2585 285.098 66.373 285.098ZM66.2607 280.361C65.8962 280.361 65.5902 280.495 65.3428 280.762C65.0954 281.025 64.9424 281.396 64.8838 281.875H67.5303V281.807C67.5042 281.348 67.3805 280.993 67.1592 280.742C66.9378 280.488 66.6383 280.361 66.2607 280.361ZM71.6025 284.36C71.9248 284.36 72.2064 284.263 72.4473 284.067C72.6882 283.872 72.8216 283.628 72.8477 283.335H73.7021C73.6859 283.638 73.5817 283.926 73.3896 284.199C73.1976 284.473 72.9404 284.691 72.6182 284.854C72.2992 285.016 71.9606 285.098 71.6025 285.098C70.8831 285.098 70.3102 284.858 69.8838 284.38C69.4606 283.898 69.249 283.241 69.249 282.407V282.256C69.249 281.742 69.3434 281.284 69.5322 280.884C69.721 280.483 69.9912 280.173 70.3428 279.951C70.6976 279.73 71.1159 279.619 71.5977 279.619C72.1901 279.619 72.6816 279.797 73.0723 280.151C73.4661 280.506 73.6761 280.967 73.7021 281.533H72.8477C72.8216 281.191 72.6914 280.911 72.457 280.693C72.2259 280.472 71.9395 280.361 71.5977 280.361C71.1387 280.361 70.7822 280.527 70.5283 280.859C70.2777 281.188 70.1523 281.665 70.1523 282.29V282.461C70.1523 283.07 70.2777 283.538 70.5283 283.867C70.779 284.196 71.137 284.36 71.6025 284.36ZM77.2715 280.527C77.1348 280.505 76.9867 280.493 76.8271 280.493C76.2347 280.493 75.8327 280.745 75.6211 281.25V285H74.7178V279.717H75.5967L75.6113 280.327C75.9076 279.855 76.3275 279.619 76.8711 279.619C77.0469 279.619 77.1803 279.642 77.2715 279.688V280.527ZM80.2012 285.098C79.485 285.098 78.9023 284.863 78.4531 284.395C78.0039 283.923 77.7793 283.293 77.7793 282.505V282.339C77.7793 281.815 77.8786 281.348 78.0771 280.938C78.279 280.524 78.5589 280.202 78.917 279.971C79.2783 279.736 79.6689 279.619 80.0889 279.619C80.7757 279.619 81.3096 279.845 81.6904 280.298C82.0713 280.75 82.2617 281.398 82.2617 282.241V282.617H78.6826C78.6956 283.138 78.847 283.56 79.1367 283.882C79.4297 284.201 79.8008 284.36 80.25 284.36C80.569 284.36 80.8392 284.295 81.0605 284.165C81.2819 284.035 81.4756 283.862 81.6416 283.647L82.1934 284.077C81.7507 284.757 81.0866 285.098 80.2012 285.098ZM80.0889 280.361C79.7243 280.361 79.4183 280.495 79.1709 280.762C78.9235 281.025 78.7705 281.396 78.7119 281.875H81.3584V281.807C81.3324 281.348 81.2087 280.993 80.9873 280.742C80.766 280.488 80.4665 280.361 80.0889 280.361ZM86.5732 285C86.5212 284.896 86.4788 284.71 86.4463 284.443C86.0264 284.88 85.5251 285.098 84.9424 285.098C84.4215 285.098 83.9935 284.951 83.6582 284.658C83.3262 284.362 83.1602 283.988 83.1602 283.535C83.1602 282.985 83.3685 282.559 83.7852 282.256C84.2051 281.95 84.7943 281.797 85.5527 281.797H86.4316V281.382C86.4316 281.066 86.3372 280.815 86.1484 280.63C85.9596 280.441 85.6813 280.347 85.3135 280.347C84.9912 280.347 84.721 280.428 84.5029 280.591C84.2848 280.754 84.1758 280.951 84.1758 281.182H83.2676C83.2676 280.918 83.3604 280.664 83.5459 280.42C83.7347 280.173 83.9886 279.977 84.3076 279.834C84.6299 279.691 84.9831 279.619 85.3672 279.619C85.9759 279.619 86.4528 279.772 86.7979 280.078C87.1429 280.381 87.3219 280.799 87.335 281.333V283.765C87.335 284.25 87.3968 284.635 87.5205 284.922V285H86.5732ZM85.0742 284.312C85.3574 284.312 85.626 284.238 85.8799 284.092C86.1338 283.945 86.3177 283.755 86.4316 283.521V282.437H85.7236C84.6169 282.437 84.0635 282.76 84.0635 283.408C84.0635 283.691 84.1579 283.913 84.3467 284.072C84.5355 284.232 84.778 284.312 85.0742 284.312ZM91.8271 283.599C91.8271 283.354 91.7344 283.166 91.5488 283.032C91.3665 282.896 91.0459 282.778 90.5869 282.681C90.1312 282.583 89.7682 282.466 89.498 282.329C89.2311 282.192 89.0326 282.03 88.9023 281.841C88.7754 281.652 88.7119 281.427 88.7119 281.167C88.7119 280.734 88.8942 280.368 89.2588 280.068C89.6266 279.769 90.0954 279.619 90.665 279.619C91.264 279.619 91.749 279.774 92.1201 280.083C92.4945 280.392 92.6816 280.788 92.6816 281.27H91.7734C91.7734 281.022 91.6676 280.809 91.4561 280.63C91.2477 280.451 90.984 280.361 90.665 280.361C90.3363 280.361 90.0791 280.433 89.8936 280.576C89.708 280.719 89.6152 280.907 89.6152 281.138C89.6152 281.356 89.7015 281.52 89.874 281.631C90.0465 281.742 90.3574 281.847 90.8066 281.948C91.2591 282.049 91.6253 282.17 91.9053 282.31C92.1852 282.45 92.3919 282.619 92.5254 282.817C92.6621 283.013 92.7305 283.252 92.7305 283.535C92.7305 284.007 92.5417 284.386 92.1641 284.673C91.7865 284.956 91.2965 285.098 90.6943 285.098C90.2712 285.098 89.8968 285.023 89.5713 284.873C89.2458 284.723 88.9902 284.515 88.8047 284.248C88.6224 283.978 88.5312 283.687 88.5312 283.374H89.4346C89.4508 283.677 89.5713 283.918 89.7959 284.097C90.0238 284.272 90.3232 284.36 90.6943 284.36C91.0361 284.36 91.3096 284.292 91.5146 284.155C91.723 284.015 91.8271 283.83 91.8271 283.599ZM96.0996 285.098C95.3835 285.098 94.8008 284.863 94.3516 284.395C93.9023 283.923 93.6777 283.293 93.6777 282.505V282.339C93.6777 281.815 93.777 281.348 93.9756 280.938C94.1774 280.524 94.4574 280.202 94.8154 279.971C95.1768 279.736 95.5674 279.619 95.9873 279.619C96.6742 279.619 97.208 279.845 97.5889 280.298C97.9697 280.75 98.1602 281.398 98.1602 282.241V282.617H94.5811C94.5941 283.138 94.7454 283.56 95.0352 283.882C95.3281 284.201 95.6992 284.36 96.1484 284.36C96.4674 284.36 96.7376 284.295 96.959 284.165C97.1803 284.035 97.374 283.862 97.54 283.647L98.0918 284.077C97.6491 284.757 96.985 285.098 96.0996 285.098ZM95.9873 280.361C95.6227 280.361 95.3167 280.495 95.0693 280.762C94.8219 281.025 94.6689 281.396 94.6104 281.875H97.2568V281.807C97.2308 281.348 97.1071 280.993 96.8857 280.742C96.6644 280.488 96.3649 280.361 95.9873 280.361Z" fill="#128100"/>
<path d="M104.244 280.527C104.107 280.505 103.959 280.493 103.8 280.493C103.207 280.493 102.805 280.745 102.594 281.25V285H101.69V279.717H102.569L102.584 280.327C102.88 279.855 103.3 279.619 103.844 279.619C104.02 279.619 104.153 279.642 104.244 279.688V280.527ZM104.742 282.31C104.742 281.792 104.843 281.326 105.045 280.913C105.25 280.5 105.533 280.181 105.895 279.956C106.259 279.731 106.674 279.619 107.14 279.619C107.859 279.619 108.44 279.868 108.883 280.366C109.329 280.864 109.552 281.527 109.552 282.354V282.417C109.552 282.931 109.452 283.394 109.254 283.804C109.059 284.211 108.777 284.528 108.409 284.756C108.045 284.984 107.625 285.098 107.149 285.098C106.433 285.098 105.852 284.849 105.406 284.351C104.964 283.853 104.742 283.193 104.742 282.373V282.31ZM105.65 282.417C105.65 283.003 105.785 283.473 106.056 283.828C106.329 284.183 106.694 284.36 107.149 284.36C107.608 284.36 107.973 284.181 108.243 283.823C108.513 283.462 108.648 282.957 108.648 282.31C108.648 281.73 108.51 281.261 108.233 280.903C107.96 280.542 107.595 280.361 107.14 280.361C106.694 280.361 106.334 280.539 106.061 280.894C105.787 281.248 105.65 281.756 105.65 282.417ZM110.445 282.31C110.445 281.792 110.546 281.326 110.748 280.913C110.953 280.5 111.236 280.181 111.598 279.956C111.962 279.731 112.377 279.619 112.843 279.619C113.562 279.619 114.143 279.868 114.586 280.366C115.032 280.864 115.255 281.527 115.255 282.354V282.417C115.255 282.931 115.156 283.394 114.957 283.804C114.762 284.211 114.48 284.528 114.112 284.756C113.748 284.984 113.328 285.098 112.853 285.098C112.136 285.098 111.555 284.849 111.109 284.351C110.667 283.853 110.445 283.193 110.445 282.373V282.31ZM111.354 282.417C111.354 283.003 111.489 283.473 111.759 283.828C112.032 284.183 112.397 284.36 112.853 284.36C113.312 284.36 113.676 284.181 113.946 283.823C114.216 283.462 114.352 282.957 114.352 282.31C114.352 281.73 114.213 281.261 113.937 280.903C113.663 280.542 113.299 280.361 112.843 280.361C112.397 280.361 112.037 280.539 111.764 280.894C111.49 281.248 111.354 281.756 111.354 282.417ZM117.237 279.717L117.262 280.303C117.649 279.847 118.172 279.619 118.829 279.619C119.568 279.619 120.071 279.902 120.338 280.469C120.514 280.215 120.742 280.01 121.021 279.854C121.305 279.697 121.638 279.619 122.022 279.619C123.181 279.619 123.771 280.233 123.79 281.46V285H122.887V281.514C122.887 281.136 122.8 280.854 122.628 280.669C122.455 280.48 122.166 280.386 121.759 280.386C121.424 280.386 121.145 280.487 120.924 280.688C120.702 280.887 120.574 281.156 120.538 281.494V285H119.63V281.538C119.63 280.77 119.254 280.386 118.502 280.386C117.91 280.386 117.504 280.638 117.286 281.143V285H116.383V279.717H117.237ZM124.83 279.893L124.317 279.541C124.62 279.118 124.776 278.672 124.786 278.203V277.5H125.68V278.135C125.676 278.46 125.595 278.786 125.436 279.111C125.279 279.434 125.077 279.694 124.83 279.893ZM129.298 283.599C129.298 283.354 129.205 283.166 129.02 283.032C128.837 282.896 128.517 282.778 128.058 282.681C127.602 282.583 127.239 282.466 126.969 282.329C126.702 282.192 126.503 282.03 126.373 281.841C126.246 281.652 126.183 281.427 126.183 281.167C126.183 280.734 126.365 280.368 126.729 280.068C127.097 279.769 127.566 279.619 128.136 279.619C128.735 279.619 129.22 279.774 129.591 280.083C129.965 280.392 130.152 280.788 130.152 281.27H129.244C129.244 281.022 129.138 280.809 128.927 280.63C128.718 280.451 128.455 280.361 128.136 280.361C127.807 280.361 127.55 280.433 127.364 280.576C127.179 280.719 127.086 280.907 127.086 281.138C127.086 281.356 127.172 281.52 127.345 281.631C127.517 281.742 127.828 281.847 128.277 281.948C128.73 282.049 129.096 282.17 129.376 282.31C129.656 282.45 129.863 282.619 129.996 282.817C130.133 283.013 130.201 283.252 130.201 283.535C130.201 284.007 130.012 284.386 129.635 284.673C129.257 284.956 128.767 285.098 128.165 285.098C127.742 285.098 127.368 285.023 127.042 284.873C126.716 284.723 126.461 284.515 126.275 284.248C126.093 283.978 126.002 283.687 126.002 283.374H126.905C126.922 283.677 127.042 283.918 127.267 284.097C127.494 284.272 127.794 284.36 128.165 284.36C128.507 284.36 128.78 284.292 128.985 284.155C129.194 284.015 129.298 283.83 129.298 283.599ZM138.321 282.417C138.321 283.221 138.137 283.869 137.77 284.36C137.402 284.852 136.904 285.098 136.275 285.098C135.634 285.098 135.13 284.894 134.762 284.487V287.031H133.858V279.717H134.684L134.728 280.303C135.095 279.847 135.606 279.619 136.261 279.619C136.896 279.619 137.397 279.858 137.765 280.337C138.136 280.815 138.321 281.481 138.321 282.334V282.417ZM137.418 282.314C137.418 281.719 137.291 281.248 137.037 280.903C136.783 280.558 136.435 280.386 135.992 280.386C135.445 280.386 135.035 280.628 134.762 281.113V283.638C135.032 284.119 135.445 284.36 136.002 284.36C136.435 284.36 136.778 284.189 137.032 283.848C137.289 283.503 137.418 282.992 137.418 282.314ZM142.027 280.527C141.891 280.505 141.743 280.493 141.583 280.493C140.991 280.493 140.589 280.745 140.377 281.25V285H139.474V279.717H140.353L140.367 280.327C140.663 279.855 141.083 279.619 141.627 279.619C141.803 279.619 141.936 279.642 142.027 279.688V280.527ZM143.844 285H142.94V279.717H143.844V285ZM142.867 278.315C142.867 278.169 142.911 278.045 142.999 277.944C143.09 277.843 143.224 277.793 143.399 277.793C143.575 277.793 143.709 277.843 143.8 277.944C143.891 278.045 143.937 278.169 143.937 278.315C143.937 278.462 143.891 278.584 143.8 278.682C143.709 278.779 143.575 278.828 143.399 278.828C143.224 278.828 143.09 278.779 142.999 278.682C142.911 278.584 142.867 278.462 142.867 278.315ZM147.413 284.36C147.735 284.36 148.017 284.263 148.258 284.067C148.499 283.872 148.632 283.628 148.658 283.335H149.513C149.496 283.638 149.392 283.926 149.2 284.199C149.008 284.473 148.751 284.691 148.429 284.854C148.11 285.016 147.771 285.098 147.413 285.098C146.694 285.098 146.121 284.858 145.694 284.38C145.271 283.898 145.06 283.241 145.06 282.407V282.256C145.06 281.742 145.154 281.284 145.343 280.884C145.532 280.483 145.802 280.173 146.153 279.951C146.508 279.73 146.926 279.619 147.408 279.619C148.001 279.619 148.492 279.797 148.883 280.151C149.277 280.506 149.487 280.967 149.513 281.533H148.658C148.632 281.191 148.502 280.911 148.268 280.693C148.036 280.472 147.75 280.361 147.408 280.361C146.949 280.361 146.593 280.527 146.339 280.859C146.088 281.188 145.963 281.665 145.963 282.29V282.461C145.963 283.07 146.088 283.538 146.339 283.867C146.59 284.196 146.948 284.36 147.413 284.36ZM152.721 285.098C152.005 285.098 151.422 284.863 150.973 284.395C150.523 283.923 150.299 283.293 150.299 282.505V282.339C150.299 281.815 150.398 281.348 150.597 280.938C150.799 280.524 151.078 280.202 151.437 279.971C151.798 279.736 152.188 279.619 152.608 279.619C153.295 279.619 153.829 279.845 154.21 280.298C154.591 280.75 154.781 281.398 154.781 282.241V282.617H151.202C151.215 283.138 151.367 283.56 151.656 283.882C151.949 284.201 152.32 284.36 152.77 284.36C153.089 284.36 153.359 284.295 153.58 284.165C153.801 284.035 153.995 283.862 154.161 283.647L154.713 284.077C154.27 284.757 153.606 285.098 152.721 285.098ZM152.608 280.361C152.244 280.361 151.938 280.495 151.69 280.762C151.443 281.025 151.29 281.396 151.231 281.875H153.878V281.807C153.852 281.348 153.728 280.993 153.507 280.742C153.285 280.488 152.986 280.361 152.608 280.361Z" fill="black"/>
<path d="M105.192 78.1152C105.192 78.1152 108.072 81.3577 108.647 82.6822H111.122C112.16 79.5147 116.19 71.9547 119.645 69.3047C120.36 68.3847 118.563 68.0047 117.112 68.6142C114.924 69.5317 110.799 76.5442 110.029 78.2302C108.937 78.5177 107.784 76.3877 107.783 76.3877L105.192 78.1152Z" fill="#66CC44"/>
<path d="M242.192 78.1152C242.192 78.1152 245.072 81.3577 245.647 82.6822H248.122C249.16 79.5147 253.19 71.9547 256.645 69.3047C257.36 68.3847 255.563 68.0047 254.112 68.6142C251.924 69.5317 247.799 76.5442 247.029 78.2302C245.937 78.5177 244.784 76.3877 244.783 76.3877L242.192 78.1152Z" fill="#66CC44"/>
<path d="M387.569 78.1648L389.702 76.7423C389.723 76.7758 389.746 76.8123 389.77 76.851C389.9 77.0522 390.085 77.3195 390.307 77.5793C390.527 77.8371 390.794 78.0984 391.087 78.2771C391.381 78.4558 391.729 78.5676 392.093 78.472L392.207 78.4418L392.257 78.334C392.634 77.5081 393.849 75.3459 395.246 73.2737C395.944 72.2388 396.682 71.2327 397.379 70.4307C398.085 69.6184 398.72 69.0495 399.208 68.8447L399.208 68.8447C399.891 68.5578 400.649 68.5094 401.131 68.6286C401.38 68.6901 401.5 68.7818 401.539 68.8489C401.559 68.8822 401.588 68.96 401.466 69.1272C399.706 70.4883 397.826 73.063 396.263 75.6708C394.743 78.2055 393.501 80.8084 392.943 82.4322H390.806C390.639 82.0983 390.373 81.6896 390.068 81.2643C389.713 80.7684 389.296 80.2346 388.898 79.7445C388.501 79.2541 388.121 78.8055 387.841 78.4796C387.734 78.3554 387.642 78.249 387.569 78.1648Z" stroke="#535353" stroke-width="0.5"/>
</svg>
