<svg width="237" height="82" viewBox="0 0 237 82" fill="none" xmlns="http://www.w3.org/2000/svg">
<path d="M-23.0757 50.7474H-23.0111L-22.9465 50.2308L-22.8818 48.54L-22.8172 48.2347L-22.6234 47.1546L-22.5588 47.3189L-22.4941 46.9197L-22.4295 46.8493L-22.3649 45.5812L-22.1711 46.2622L-22.1065 46.4266L-22.0418 45.7926L-21.9772 45.9804L-21.9126 46.497L-21.7188 46.1918L-21.6541 47.6242L-21.5895 47.1546L-21.5249 46.7788L-21.4603 45.6986L-21.2664 45.9804L-21.2018 46.6849L-21.1372 46.4266L-21.0726 47.3659H-21.008L-20.8141 46.0274L-20.7495 46.4501L-20.6849 46.8962L-20.6203 46.9432L-20.5557 47.178L-20.3618 46.4736L-20.2972 47.3894L-20.2326 48.2113L-20.168 48.9627L-20.1034 48.7044L-19.9095 48.8923L-19.8449 49.0801H-19.7803L-19.7157 48.54L-19.6511 48.9157L-19.4572 49.268L-19.3926 50.2073L-19.328 49.9724L-19.2634 50.1603L-19.1988 49.3149L-19.0049 48.2113L-18.9403 48.4461L-18.8757 48.9392L-18.8111 49.174L-18.7464 49.1975L-18.5526 49.221L-18.488 50.0664L-18.4234 49.5732L-18.3588 50.1603L-18.2941 51.4753L-18.1003 51.1935L-18.0357 51.0996L-17.9711 51.0526L-17.9064 51.8276L-17.8418 51.4988L-17.648 50.6769L-17.5834 51.7806H-17.5187L-17.4541 51.8276L-17.3895 51.3814L-17.1957 52.0154L-17.1311 51.9215L-17.0664 51.8276L-17.0018 52.1094H-16.9372H-16.7434L-16.6787 52.8138L-16.6141 52.6964L-16.5495 53.3305L-16.4849 54.1758L-16.2911 54.4106L-16.2264 54.3872L-16.1618 54.7629L-16.0972 55.0682L-16.0326 55.1151L-15.8387 54.5046L-15.7741 54.8098L-15.7095 55.6552L-15.6449 54.9977L-15.5803 55.5848L-15.3864 55.1151H-15.3218L-15.2572 54.9038L-15.1926 55.209L-15.128 54.5515L-14.9341 55.2325L-14.8695 54.5046L-14.8049 54.2228L-14.7403 54.1054L-14.6757 53.5888L-14.4818 54.3872L-14.4172 54.2463L-14.3526 54.7159L-14.288 53.9645L-14.2234 53.4713L-14.0295 53.0487L-13.9649 53.1661L-13.9003 53.6357L-13.8357 53.0956L-13.771 53.0017L-13.5772 53.1661L-13.5126 53.894L-13.448 52.7199L-13.3834 53.1661L-13.3187 52.9312L-13.1249 53.5418L-13.0603 54.1758L-12.9957 53.941L-12.931 53.3774L-12.8664 51.8041L-12.6726 51.8745L-12.608 51.7571L-12.5434 50.9822L-12.4787 51.1935L-12.4141 51.3344L-12.2203 52.532L-12.1557 52.5086L-12.091 52.8138L-12.0264 52.4381L-11.9618 53.0017L-11.768 53.26H-11.7034L-11.6387 52.9547L-11.5741 53.3305L-11.5095 53.8236L-11.3157 54.9038L-11.251 55.0682L-11.1864 55.2795L-11.1218 55.5613L-11.0572 54.9977L-10.8633 55.303L-10.7987 55.89L-10.7341 56.9702L-10.6695 57.3929L-10.6049 57.3225H-10.411L-10.3464 57.1816L-10.2818 57.299L-10.2172 57.7921L-10.1526 57.5808L-9.95873 57.8156L-9.89412 57.9565L-9.8295 56.8528L-9.76488 56.571L-9.70027 55.7022L-9.50642 55.7961L-9.44181 56.3832L-9.37719 55.8431H-9.31258L-9.24796 56.2423L-9.05412 57.7686L-8.9895 57.4634H-8.92488L-8.86027 56.665L-8.79565 55.6787L-8.6018 55.7022L-8.53719 54.9273L-8.47257 53.4479L-8.40796 52.532L-8.34334 53.1661L-8.1495 53.4479L-8.08488 53.8705L-8.02027 53.6827L-7.95565 54.7159L-7.89103 55.2325L-7.69719 55.7726L-7.63257 55.8431L-7.56796 55.4439L-7.50334 55.1621L-7.43873 56.3597L-7.24488 55.4439L-7.18026 54.7864L-7.11565 54.9038L-7.05103 55.9135L-6.98642 56.2658L-6.79257 57.4869L-6.72796 57.8391L-6.66334 58.5905L-6.59872 58.7314L-6.53411 58.2853L-6.34026 58.4966L-6.27565 58.3792L-6.21103 59.6707L-6.14642 60.3282L-6.0818 60.5631L-5.88795 61.3145L-5.82334 61.2441L-5.75872 61.4789L-5.69411 62.1129L-5.62949 62.0894L-5.43565 62.7234L-5.37103 61.925L-5.30641 62.2773L-5.2418 61.2675L-5.17718 61.5963L-4.98333 61.0327L-4.91872 60.4222L-4.85411 61.7137L-4.78949 62.3242L-4.72487 62.019L-4.53103 62.653L-4.46641 61.7607L-4.4018 62.3477L-4.33718 63.4984L-4.27257 63.3575L-4.07872 61.9485L-4.0141 62.9583L-3.94949 62.7L-3.88487 63.5923L-3.82026 64.4612L-3.62641 64.5316L-3.56179 64.7195L-3.49718 65.1656L-3.43256 64.9073L-3.36795 65.5179L-3.1741 65.6353L-3.10948 66.2928L-3.04487 68.1949L-2.98026 67.6078L-2.91564 67.7722L-2.72179 66.645L-2.65718 66.9503L-2.59256 67.96L-2.52795 67.3025L-2.46333 67.4434L-2.26948 67.4669L-2.20487 68.8759L-2.14025 69.2046L-2.07564 69.3455L-2.01102 69.1342L-1.81718 69.5334L-1.75256 69.8386L-1.68794 68.4767L-1.62333 68.3827L-1.55871 68.6176L-1.36487 67.6078L-1.30025 68.4062L-1.23563 68.1949L-1.17102 66.3632L-1.1064 67.42L-0.912558 68.1714L-0.847942 67.6548L-0.783326 67.7017L-0.71871 67.7722L-0.654094 65.8701L-0.46025 64.5551L-0.395634 64.8134L-0.331018 64.4612L-0.266402 64.062L-0.201786 64.4142L-0.00794136 64.6255H0.0566747H0.121291L0.185907 65.9406L0.250523 67.8896L0.444367 68.1949H0.508983L0.573599 67.8426L0.638215 68.5471L0.702831 68.2653L0.896676 68.2184L0.961292 68.0305L1.02591 67.7487L1.09052 67.5608L1.15514 68.9698L1.34898 70.05L1.4136 69.9561L1.47822 68.9698L1.54283 67.8661L1.60745 67.6783L1.80129 65.5648L1.86591 65.7057L1.93052 66.5746L1.99514 67.5608L2.05976 68.0305L2.2536 68.5706L2.31822 68.7585L2.38283 69.1577L2.44745 69.7917L2.51207 70.003L2.70591 69.3455L2.77053 67.8426L2.83514 67.1147L2.89976 66.5276L2.96437 65.9171L3.15822 66.2223L3.22284 66.1754L3.28745 66.7155L3.35207 67.1616L3.41668 67.6783L3.61053 67.2791L3.67515 68.4297L3.73976 67.4904L3.80437 68.3593L3.86899 69.5569L4.06284 69.2281L4.12745 69.8386L4.19207 71.6233L4.25668 72.4217L4.3213 72.8914L4.51515 73.2436L4.57976 73.2906L4.64438 73.1732L4.70899 74.4177L4.77361 75.404L4.96746 74.6291L5.03207 75.0283L5.09669 75.9911L5.1613 76.9538L5.22592 76.813L5.41976 78.809H5.48438L5.549 78.0575L5.61361 75.451H5.67822H5.87207L5.93669 76.8834L6.0013 78.2454L6.06592 78.9499L6.13054 79.0438L6.32438 79.2082L6.389 77.7523L6.45361 77.4939L6.51823 76.4607L6.58284 78.3393L6.77669 78.081H6.84131L6.90592 78.3863L6.97054 79.7952L7.03515 79.396L7.229 79.7248L7.29361 79.3491L7.35823 80.2884L7.42285 79.7717L7.48746 78.9029L7.68131 80.0066L7.74592 80.3118L7.81054 80.3823L7.87515 78.7855L7.93977 77.1417L8.13362 77.447L8.19823 76.9069L8.26285 76.6016H8.32746L8.39208 75.8032L8.58593 75.8267L8.65054 76.4842L8.71516 75.5214L8.77977 74.6995L8.84439 75.8032L9.03824 75.5214L9.10285 75.9441L9.16746 75.6153L9.23208 75.9676L9.2967 76.2024L9.49054 76.9538L9.55516 77.5644L9.61978 78.6446L9.68439 78.6681L9.749 78.5507L9.94285 78.715H10.0075L10.0721 77.7288L10.1367 76.719L10.2013 76.2963L10.3952 76.4138L10.4598 77.1182L10.5244 75.8737L10.589 75.2396L10.6536 77.1652L10.8475 78.9264L10.9121 76.4607L10.9767 76.3668L11.0413 75.404L11.1059 74.5821L11.2998 75.8032L11.3644 75.9911L11.429 76.132L11.4936 76.0145L11.5582 77.2826L11.7521 76.4138L11.8167 76.8834L11.8813 77.1652L11.9459 78.4332L12.0106 78.5976L12.2044 78.7385L12.269 78.8559L12.3336 79.1377L12.3982 79.8892L12.4629 77.8697L12.6567 77.6818L12.7213 78.0106L12.7859 78.2923L12.8506 78.2219L12.9152 79.4195L13.109 79.5369L13.1736 80.8519L13.2382 79.9126L13.3029 79.5369L13.3675 79.2316L13.5613 79.6309L13.6259 80.1944L13.6906 78.5272L13.7552 77.9166L13.8198 78.4567L14.0136 78.5741L14.0782 78.1984L14.1429 77.0713L14.2075 77.2826L14.2721 76.9304L14.4659 76.8599L14.5306 76.085L14.5952 75.9911L14.6598 75.9206L14.7244 71.9286L14.9182 71.2946L14.9829 70.1909L15.0475 70.1439L15.1121 70.1909L15.1767 68.2888L15.3706 68.007L15.4352 67.7252L15.4998 68.3358L15.5644 69.2046L15.629 69.1342L15.8229 68.688L15.8875 66.8564L15.9521 68.688L16.0167 68.735L16.0813 68.3358L16.2752 67.1147L16.3398 65.9406L16.4044 65.0952L16.469 65.6353L16.5336 62.8878L16.7275 62.5121L16.7921 61.6902L16.8567 61.1032L16.9213 59.1776L16.9859 60.7744L17.1798 61.7607L17.2444 63.1227L17.309 62.6295L17.3736 65.7762L17.4383 62.7704L17.6321 66.5511L17.6967 68.3123L17.7613 67.8661L17.8259 67.96L17.8906 67.3025L18.0844 64.062L18.149 63.5219L18.2136 60.9388L18.2783 58.8019L18.3429 57.9565L18.5367 55.4674L18.6013 55.4439L18.6659 56.6884L18.7306 56.0779L18.7952 54.7864L18.989 55.5378L19.0536 56.9468L19.1183 55.3734L19.1829 53.8471L19.2475 52.532L19.4413 52.7904L19.5059 49.5967L19.5706 44.8767L19.6352 44.4071L19.6998 41.2839L19.8936 39.2409L19.9583 40.2507L20.0229 43.82L20.0875 47.5538L20.1521 43.6322L20.346 44.5715L20.4106 44.548L20.4752 45.2525L20.5398 43.82L20.6044 43.6322L20.7983 45.5577L20.8629 43.4913L20.9275 40.2977L20.9921 40.2272L21.0567 42.4346L21.2506 42.2232L21.3152 42.1293L21.3798 41.8475L21.4444 40.4855L21.509 41.3779L21.7029 43.867L21.7675 44.4071L21.8321 46.1683L21.8967 45.6752L21.9613 43.2095L22.1552 41.4718L22.2198 42.7633L22.2844 41.6831L22.349 41.6362L22.4136 42.2937L22.6075 45.0176L22.6721 44.8063L22.7367 46.0274L22.8013 50.0194L22.866 51.6867L23.0598 53.894L23.1244 56.1718L23.189 60.6805L23.2536 67.0442L23.3183 59.248L23.5121 59.6238L23.5767 59.7177L23.6413 60.0464H23.706H23.7706L23.9644 63.1461L24.029 61.1501L24.0937 58.9897H24.1583L24.2229 58.3557L24.4167 54.8098L24.4813 51.5693L24.546 54.9742L24.6106 55.256L24.6752 56.1014L24.869 52.3912L24.9337 50.6534L24.9983 49.4558L25.0629 48.2582L25.1275 50.7474L25.3213 49.5732L25.386 46.0978L25.4506 45.816L25.5152 46.8493L25.5798 44.1723L25.7737 46.9432L25.8383 49.4558L25.9029 50.63L25.9675 48.6105L26.0321 44.4775L26.226 43.6791L26.2906 44.9472L26.3552 44.501L26.4198 44.6654L26.4844 44.1958L26.6783 47.178L26.7429 46.6145L26.8075 46.2153L26.8721 44.7359L26.9367 44.595L27.1306 43.7496L27.1952 41.8475L27.2598 41.2839L27.3244 42.8807L27.389 41.2135L27.5829 44.2192L27.6475 43.7261L27.7121 44.1723L27.7767 43.9844L27.8414 41.9884L28.0352 41.2839L28.0998 41.5657L28.1644 40.6734H28.229L28.2937 42.1997L28.4875 40.8143L28.5521 44.0079L28.6167 44.0549L28.6814 43.9844L28.746 45.7456L28.9398 47.6477L29.0044 46.2622L29.069 48.8688L29.1337 55.937L29.1983 54.3872L29.3921 54.5046L29.4567 53.8471L29.5214 53.6827L29.586 55.1386L29.6506 51.0761L29.8444 49.7141L29.909 51.264L29.9737 50.4421L30.0383 52.3677L30.1029 52.7904L30.2967 53.7062L30.3614 50.5595L30.426 50.2308L30.4906 50.7943H30.5552H30.7491L30.8137 50.8413L30.8783 49.4558L30.9429 49.7611L31.0075 47.8825L31.2014 46.6145L31.266 46.1213L31.3306 46.3327L31.3952 47.7651L31.4598 50.2542L31.6537 48.7983L31.7183 46.9667L31.7829 50.7004L31.8475 50.8178H31.9121L32.106 50.1133L32.1706 52.5086L32.2352 51.4519L32.2998 51.9919L32.3644 52.7904L32.5583 54.7159L32.6229 56.1014L32.6875 55.3265L32.7521 54.575L32.8167 53.988L33.0106 53.6827L33.0752 55.209L33.1398 56.1718L33.2044 57.1816L33.2691 59.6472L33.4629 60.0934L33.5275 58.8723L33.5921 58.7784L33.6568 58.2383L33.7214 61.1501L33.9152 62.5826L33.9798 62.7939L34.0444 62.4182L34.1091 61.1032L34.1737 62.0659L34.3675 58.3557L34.4321 59.4829L34.4968 61.1971L34.5614 59.6003L34.626 60.023L34.8198 58.1678L34.8844 58.661L34.9491 58.0504L35.0137 59.0132L35.0783 59.1541L35.2721 58.2618L35.3368 59.7177L35.4014 60.3282L35.466 59.248L35.5306 61.1266L35.7244 60.6805L35.7891 61.5728L35.8537 61.1266L35.9183 60.5631L35.9829 60.0934L36.1768 58.7314L36.2414 60.2108L36.306 58.7784L36.3706 59.8586L36.4352 58.7784L36.6291 59.6707L36.6937 59.8821L36.7583 61.0327L36.8229 61.5258L36.8875 61.0562L37.0814 62.5356L37.146 62.606L37.2106 62.2303L37.2752 62.6765L37.3398 62.653L37.5337 63.1461L37.5983 62.6765L37.6629 61.2206L37.7275 60.61L37.7921 61.6198L37.986 63.5219L38.0506 64.4612L38.1152 64.7429L38.1798 64.2968L38.2445 64.1559L38.4383 62.3712L38.5029 61.9485L38.5675 61.9955L38.6321 63.4279H38.6968L38.8906 60.8448L38.9552 61.1736L39.0198 61.3145L39.0845 62.8409L39.1491 63.8506L39.3429 63.7567L39.4075 63.7802L39.4721 63.1461L39.5368 63.1227L39.6014 64.2263L39.7952 63.1696L39.8598 63.6628L39.9245 62.5826L39.9891 63.8976L40.0537 63.0522L40.2475 63.8506L40.3121 65.4709L40.3768 66.011L40.4414 66.2693L40.506 66.8094L40.6998 66.4337L40.7645 66.9973L40.8291 67.6548L40.8937 68.1009L40.9583 68.0305L41.1522 67.5139L41.2168 68.8289L41.2814 68.8524L41.346 68.7115L41.4106 67.6313L41.6045 67.42L41.6691 66.3163L41.7337 67.3495L41.7983 66.1989L41.8629 66.1754L42.0568 67.0442L42.1214 68.1949L42.186 67.9131L42.2506 68.641L42.3152 68.5001L42.5091 68.6645L42.5737 69.7212L42.6383 69.9091L42.7029 69.7212L42.7675 69.7917L42.9614 70.3083L43.026 70.8484L43.0906 70.3318L43.1552 71.1537L43.2198 71.365H43.4137L43.4783 69.8386L43.5429 68.8759L43.6075 68.9228L43.6722 69.0402L43.866 68.735L43.9306 67.5139L43.9952 68.6176L44.0598 69.7682L44.1245 69.6978L44.3183 70.9893L44.3829 70.8014L44.4475 71.5529L44.5122 70.3318L44.5768 69.7682L44.7706 70.8014L44.8352 69.8386L44.8999 70.7075L44.9645 69.7212L45.0291 69.2046L45.2229 70.8249L45.2875 70.8484L45.3522 72.0225L45.4168 71.9051L45.4814 70.3083L45.6752 71.412L45.7399 71.9286L45.8045 72.093L45.8691 72.3982L45.9337 71.8581L46.1275 68.8993L46.1922 68.7585L46.2568 68.7115L46.3214 68.2888L46.386 68.5941L46.5799 67.3965L46.6445 66.2223L46.7091 66.4337L46.7737 63.9915L46.8383 63.9211L47.0322 64.2733L47.0968 63.2635L47.1614 63.2166L47.226 64.6255H47.2906L47.4845 64.696L47.5491 65.0013L47.6137 63.9445L47.6783 64.696H47.7429L47.9368 64.5081L48.0014 65.1187L48.066 64.062L48.1306 63.5453L48.1952 63.1931L48.3891 66.0814L48.4537 65.5414L48.5183 66.4572L48.5829 65.6118L48.6476 64.3437L48.8414 64.2968L48.906 63.2635L48.9706 61.5493L49.0352 60.7509L49.0999 61.5728L49.2937 61.7607L49.3583 60.9857L49.4229 60.8448L49.4876 59.976L49.5522 59.5768L49.746 58.9193L49.8106 59.2246L49.8752 59.7881L49.9399 58.1209L50.0045 56.1953L50.1983 55.984L50.2629 57.0642L50.3276 56.8059L50.3922 56.5241L50.4568 54.6924L50.6506 55.1386L50.7153 55.6552L50.7799 56.6415L50.8445 54.622L50.9091 54.0114L51.1029 55.3734L51.1676 54.7629L51.2322 54.3637L51.2968 53.6357L51.3614 54.669L51.5552 54.0819L51.6199 54.3872L51.6845 55.5613L51.7491 55.9135L51.8137 54.8098L52.0076 55.8196L52.0722 54.5046L52.1368 55.1621L52.2014 55.7726L52.266 57.1111L52.4599 56.3597L52.5245 56.5945L52.5891 56.9937L52.6537 55.7961L52.7183 54.3872L52.9122 53.4009L52.9768 54.0114L53.0414 51.6632L53.106 51.898L53.1706 51.8511L53.3645 53.4009L53.4291 53.5418L53.4937 53.4948L53.5583 53.3539H53.6229H53.8168L53.8814 52.4146L53.946 51.6867L54.0106 51.0996L54.0753 52.2503L54.2691 54.8568L54.3337 54.8333L54.3983 55.2325L54.463 54.3402L54.5276 54.2228L54.7214 52.8843L54.786 53.5888L54.8506 52.1094L54.9153 51.6632L54.9799 51.2875L55.1737 51.4284L55.2383 51.0292L55.3029 50.4186L55.3676 50.5595L55.4322 51.3579L55.626 50.3247L55.6906 48.3052L55.7553 46.0039L55.8199 43.2095L55.8845 43.4678L56.0783 46.6379L56.143 42.7868L56.2076 42.5989L56.2722 41.143L56.3368 39.7341L56.5306 37.5502L56.5953 38.7713L56.6599 36.3291L56.7245 37.3154L56.7891 39.8045L56.983 37.7146L57.0476 35.6012L57.1122 36.9397L57.1768 36.0943L57.2414 38.0903L57.4353 36.9162L57.4999 34.521L57.5645 35.5072L57.6291 36.3056L57.6937 32.9946L57.8876 31.3508L57.9522 31.069L58.0168 32.1962L58.0814 32.7598L58.146 34.0748L58.3399 36.0004L58.4045 36.1413L58.4691 36.4465L58.5337 37.7615L58.5983 37.9024L58.7922 38.2077L58.8568 36.1413L58.9214 36.3526L58.986 36.2117L59.0507 36.7048L59.2445 37.4093L59.3091 35.202L59.3737 36.3526L59.4383 37.2215L59.503 40.5795L59.6968 40.3211L59.7614 41.0256L59.826 40.8612L59.8907 42.2232L59.9553 41.8945L60.1491 40.9317L60.2137 40.8847L60.2783 42.8573L60.343 44.6654L60.4076 47.0841L60.6014 46.4736L60.666 44.8767L60.7307 44.501L60.7953 44.9707L60.8599 45.6282L61.0537 46.1213L61.1183 47.5303L61.183 46.9667L61.2476 48.0234L61.3122 47.4598L61.506 48.0939L61.5707 50.0899L61.6353 49.902L61.6999 49.5967L61.7645 49.4793L61.9584 50.536L62.023 48.9157L62.0876 47.2954L62.1522 44.1018L62.2168 44.2427L62.4107 44.548L62.4753 45.1116L62.5399 45.3934L62.6045 44.7593L62.6691 42.9747L62.863 42.8573L62.9276 41.4953L62.9922 41.5422L63.0568 42.7164L63.1214 42.9981L63.3153 42.8103L63.3799 42.5285L63.4445 44.2427L63.5091 44.501L63.5737 44.7359L63.7676 45.2994L63.8322 43.4443L63.8968 42.7633L63.9614 43.0216L64.026 43.1625L64.2199 44.2662L64.2845 44.9707L64.3491 46.9197L64.4137 48.1643L64.4784 47.906L64.6722 48.0939L64.7368 48.7279L64.8014 51.9919L64.8661 51.4519L64.9307 52.626L65.1245 53.4713L65.1891 53.26L65.2537 55.1856L65.3184 55.6552L65.383 56.6415L65.5768 56.3597L65.6414 57.299L65.706 58.2383L65.7707 59.6238L65.8353 58.4496L66.0291 59.2011L66.0937 57.9565L66.1584 59.4829L66.223 61.1736L66.2876 61.0327L66.4814 58.7314L66.5461 58.2618L66.6107 58.3087L66.6753 60.1639L66.7399 59.1776L66.9337 60.3517L66.9984 58.9193L67.063 57.5808L67.1276 58.2383H67.1922L67.3861 59.0837L67.4507 60.1873L67.5153 60.1404L67.5799 62.8643L67.6445 60.9857L67.8384 58.9897L67.903 59.3185L67.9676 57.1816L68.0322 56.3127L68.0968 56.4536L68.2907 55.3734L68.3553 55.209L68.4199 53.5183L68.4845 55.6317L68.5491 55.984L68.743 55.6317L68.8076 53.7062L68.8722 51.6632L68.9368 51.4284L69.0014 50.1603L69.1953 49.0801L69.2599 47.0606L69.3245 48.6574L69.3891 49.1975L69.4537 50.4421L69.6476 50.8883L69.7122 51.9919L69.7768 49.8081L69.8414 49.9959L69.9061 50.3951L70.0999 50.7239L70.1645 52.9312L70.2291 51.945L70.2938 50.3247L70.3584 50.63L70.5522 49.1036L70.6168 49.1975L70.6815 48.6105L70.7461 47.953L70.8107 48.4461L71.0045 48.9392L71.0691 49.7376L71.1338 48.9392L71.1984 50.8883L71.263 51.9685L71.4568 51.7806L71.5214 52.7434L71.5861 49.9959L71.6507 48.3287L71.7153 46.544L71.9091 45.7221L71.9738 46.3561L72.0384 46.7084L72.103 49.8081L72.1676 51.8041L72.3615 51.2875L72.4261 52.0859L72.4907 53.8471L72.5553 53.4009L72.6199 54.0349L72.8138 54.669L72.8784 54.9977L72.943 56.0779L73.0076 56.5006L73.0722 56.4301L73.2661 56.1953L73.3307 56.9937L73.3953 57.5808L73.4599 56.8763L73.5245 55.4439L73.7184 54.4576L73.783 55.4908L73.8476 55.6317L73.9122 55.0916L73.9768 54.0819L74.1707 53.0017L74.2353 53.894H74.2999L74.3645 54.5281L74.4292 55.3969L74.623 55.9135L74.6876 55.89L74.7522 56.6884L74.8168 57.2051L74.8815 57.0876L75.0753 57.9565L75.1399 57.8626L75.2045 57.6512L75.2691 58.1678L75.3338 59.4594L75.5276 60.3048L75.5922 58.7549L75.6568 59.1071L75.7215 57.7686L75.7861 57.2051L75.9799 59.3655L76.0445 58.567L76.1092 59.3889L76.1738 60.023L76.2384 61.5258L76.4322 62.2773L76.4968 62.4651L76.5615 61.5963L76.6261 61.5024L76.6907 61.338L76.8845 60.3517L76.9492 60.7744L77.0138 61.0562L77.0784 62.4182L77.143 61.6433L77.3368 62.8174L77.4015 61.9485L77.4661 63.4984L77.5307 63.3105L77.5953 64.649L77.7892 65.0247L77.8538 65.4239L77.9184 65.6822L77.983 64.649L78.0476 65.2126L78.2415 63.2166L78.3061 63.5219L78.3707 65.9406L78.4353 66.692H78.4999H78.6938L78.7584 67.0677L78.823 67.6078L78.8876 68.9933L78.9522 69.6978L79.1461 69.4394L79.2107 68.8289L79.2753 69.9091L79.3399 69.2046L79.4045 65.7762L79.5984 64.6021L79.663 64.1559H79.7276L79.7922 61.7841L79.8569 63.2635L80.0507 61.6667L80.1153 61.9955L80.1799 62.653L80.2445 63.0992L80.3092 62.7704L80.503 60.2108L80.5676 61.0327L80.6322 60.7979L80.6969 61.972L80.7615 63.0992L80.9553 63.1696L81.0199 64.4612L81.0845 64.7195L81.1492 65.3065L81.2138 65.6353L81.4076 66.8329L81.4722 67.4434L81.5369 66.9503L81.6015 67.0207L81.6661 65.6118L81.8599 64.1089L81.9245 65.1891L81.9892 63.4044L82.0538 61.0327L82.1184 63.1461L82.3122 62.7469L82.3769 64.3437L82.4415 64.6021L82.5061 62.4886L82.5707 62.5826L82.7645 62.3947L82.8292 63.0522L82.8938 64.9308L82.9584 65.2361L83.023 65.6353L83.2169 65.7527L83.2815 65.33L83.3461 63.7097L83.4107 62.8878L83.4753 62.8409L83.6692 60.657L83.7338 59.6707L83.7984 60.8448L83.863 62.3712L83.9276 61.7137L84.1215 60.5161L84.1861 61.8781L84.2507 62.4182L84.3153 62.606L84.3799 64.5316L84.5738 64.4142L84.6384 65.4474L84.703 65.1656L84.7676 63.0287H84.8322L85.0261 64.8134L85.0907 61.9955L85.1553 63.4984L85.2199 62.6765L85.2846 61.8076L85.4784 62.6295L85.543 63.1227L85.6076 64.2733L85.6722 61.6667L85.7369 62.9113L85.9307 63.5923L85.9953 64.1794L86.0599 65.4944L86.1246 64.2968L86.1892 64.4612L86.383 64.7899L86.4476 65.33L86.5123 65.0013L86.5769 64.9073L86.6415 64.6725L86.8353 65.6118L86.8999 64.6725L86.9646 65.2126L87.0292 63.334L87.0938 62.9818L87.2876 61.4789L87.3523 61.1501L87.4169 60.3987L87.4815 60.5161L87.5461 57.7686L87.7399 55.7491L87.8046 55.6083L87.8692 56.665L87.9338 57.4869L87.9984 57.0642L88.1923 55.5613L88.2569 56.4301L88.3215 55.4908L88.3861 53.0956L88.4507 52.8608L88.6446 53.7766L88.7092 54.7864L88.7738 55.4439L88.8384 55.2325L88.903 53.8001L89.0969 51.4988L89.1615 49.5498L89.2261 51.6397L89.2907 50.7474L89.3553 52.9078L89.5492 54.9507L89.6138 55.1386L89.6784 57.1346L89.743 56.6415L89.8076 57.6277L90.0015 57.252L90.0661 56.0075L90.1307 57.8861L90.1953 57.6277L90.26 57.5338L90.4538 58.2383L90.5184 58.9897L90.583 59.1071L90.6476 60.4222L90.7123 61.8781L90.9061 59.9995L90.9707 55.3969L91.0353 57.6512L91.1 57.2051H91.1646L91.3584 56.8293L91.423 57.3929L91.4876 55.4674L91.5523 55.256L91.6169 55.6787L91.8107 55.7961L91.8753 54.1758L91.94 53.5653L92.0046 53.5183L92.0692 54.7394L92.263 53.213L92.3277 54.2228L92.3923 52.2972L92.4569 52.1094L92.5215 50.2073L92.7153 51.7806L92.78 51.6162L92.8446 52.6964L92.9092 53.6592L92.9738 53.9175L93.1676 53.0252L93.2323 52.3912L93.2969 52.1563L93.3615 52.6025L93.4261 52.2503L93.62 50.4891L93.6846 49.5498L93.7492 46.9902L93.8138 47.3424L93.8784 47.953L94.0723 47.6242L94.1369 48.0939L94.2015 47.8355L94.2661 47.7181L94.3307 47.859H94.5246L94.5892 48.0234L94.6538 48.0939L94.7184 45.5108L94.783 46.2153L94.9769 46.1683L95.0415 47.272L95.1061 46.3561L95.1707 44.7124L95.2353 43.914L95.4292 43.2095L95.4938 44.3601L95.5584 43.0686L95.623 43.3269L95.6877 43.8435L95.8815 42.3641L95.9461 44.1018L96.0107 44.6889L96.0754 45.8395L96.14 45.6986L96.3338 47.3189L96.3984 47.1076L96.463 46.2622L96.5277 49.0801H96.5923L96.7861 48.587L96.8507 49.4793H96.9153L96.98 48.3756L97.0446 49.268L97.2384 47.6477L97.303 48.6339L97.3677 50.7943L97.4323 50.9822L97.4969 49.6672L97.6907 50.536L97.7554 49.3854L97.82 48.3522L97.8846 46.8258L97.9492 49.268L98.143 50.7004L98.2077 50.1133L98.2723 50.2073L98.3369 51.1466L98.4015 52.626L98.5954 52.3207L98.66 53.1661L98.7246 53.0252L98.7892 51.311L98.8538 50.0429L99.0477 50.0899L99.1123 49.174L99.1769 48.7279L99.2415 50.3717L99.3061 49.6907L99.5 48.7044L99.5646 47.859L99.6292 47.9295L99.6938 47.859L99.7584 48.6809L99.9523 49.1271L100.017 49.7846L100.082 50.1603L100.146 49.3619L100.211 50.3717L100.405 50.8413L100.469 51.5927L100.534 51.6397L100.598 50.7709L100.663 51.898L100.857 51.4049L100.922 51.3579L100.986 49.0331L101.051 48.0234H101.115H101.309L101.374 48.6574L101.438 48.8688L101.503 49.174L101.568 49.1036L101.762 47.4129L101.826 48.8923L101.891 48.3522L101.955 48.2582L102.02 49.7141L102.214 48.8688L102.278 49.2915L102.343 49.902L102.408 50.0194L102.472 50.2073L102.666 49.9959H102.731L102.795 48.8688L102.86 48.7748L102.925 48.8923L103.118 47.5303L103.183 47.4129L103.248 46.3796L103.312 46.544L103.377 46.2857L103.571 45.1585L103.635 44.8767L103.7 43.3504L103.765 42.552L103.829 43.1156L104.023 43.5382L104.088 43.7966L104.152 42.1997L104.217 40.6969L104.282 40.5325L104.475 40.8378L104.54 40.2037L104.605 38.9122L104.669 38.3721L104.734 37.1275L104.928 38.8887L104.992 38.7713L105.057 39.6167L105.122 41.2604L105.186 39.3584L105.38 40.509L105.445 39.7341L105.509 40.3681L105.574 40.6264L105.638 41.2839L105.832 41.6127H105.897L105.962 42.8573L106.026 42.3641L106.091 40.4386L106.285 39.6636L106.349 39.4758L106.414 39.5227L106.478 38.6069L106.543 41.19L106.737 41.237L106.802 40.9787L106.866 40.7438L106.931 38.7243L106.995 37.9729L107.189 36.6814L107.254 36.5639L107.318 36.1647L107.383 34.8732L107.448 34.9906L107.642 34.8732L107.706 36.4935L107.771 35.7655L107.835 36.5874L107.9 35.2254L108.094 33.7226L108.158 33.4643L108.223 34.1922L108.288 36.1647L108.352 37.0571L108.546 35.9534L108.611 36.5405L108.675 36.7753L108.74 37.5032L108.805 35.9299L108.998 38.0199L109.063 38.8887L109.128 37.3623L109.192 36.8222L109.257 36.2117L109.451 37.4093L109.515 37.5972L109.58 36.423L109.645 36.47L109.709 37.3623L109.903 36.7988L109.968 38.7713L110.032 39.0766L110.097 40.6264L110.162 39.9454L110.355 40.2977L110.42 40.5795L110.485 40.5325L110.549 40.509L110.614 41.4953L110.808 40.8612L110.872 41.0256H110.937L111.002 41.8945L111.066 42.9042L111.26 43.914L111.325 44.0783L111.389 45.6282L111.454 45.816L111.518 48.3756L111.712 48.2582L111.777 47.8355L111.842 47.1076L111.906 46.4266L111.971 46.9197L112.165 45.91L112.229 46.1213L112.294 44.9002L112.358 45.2994L112.423 46.0978L112.617 45.3464L112.682 46.0978L112.746 45.7221L112.811 46.4031L112.875 47.1076L113.069 46.497L113.134 46.4266L113.198 45.5108L113.263 45.9335L113.328 46.6614H113.522L113.586 47.7181L113.651 48.7279L113.715 48.7044L113.78 47.5538L113.974 47.953L114.038 47.1546L114.103 46.2622L114.168 46.9902L114.232 45.7926L114.426 45.6517L114.491 46.544L114.555 46.9902L114.62 46.7319L114.685 44.9707L114.878 43.914L114.943 44.2427L115.008 43.4678L115.072 43.3269L115.137 42.7164L115.331 43.3269L115.395 42.7633L115.46 43.186L115.525 43.6322L115.589 43.4678L115.783 43.7026L115.848 44.3836L115.912 44.3367L115.977 45.5812L116.042 45.7926L116.235 46.5675L116.3 46.544L116.365 45.5577L116.429 46.9902L116.494 46.8728L116.688 47.859L116.752 48.3522L116.817 47.9764L116.882 48.0704L116.946 45.7456L117.14 46.0978L117.205 46.9902L117.269 47.6242L117.334 48.1408L117.398 48.1878L117.592 49.268L117.657 49.5263L117.722 51.1701L117.786 50.4421L117.851 49.9255L118.045 50.0664L118.238 50.7004L118.303 49.5732L118.497 49.7376L118.626 50.6534L118.691 48.4931L118.755 47.2485L118.949 47.6242L119.014 48.2582L119.078 47.859L119.143 48.6339L119.208 50.7943L119.402 51.6867L119.466 51.4988L119.531 50.8413L119.595 52.0389L119.66 51.4753L119.854 51.4519L119.918 51.3814L119.983 51.5458L120.048 51.8041L120.112 53.3774L120.306 53.0487L120.371 52.9078L120.435 54.2932L120.5 54.4106L120.565 55.6083L120.758 54.4341L120.823 54.2463L120.888 53.988L120.952 54.3637L121.017 52.1328L121.211 52.3442L121.275 52.9547L121.34 53.5183L121.405 51.4988L121.469 51.4753L121.663 51.8276L121.728 51.8041L121.792 52.0859L121.857 49.6202H121.922L122.115 51.1935L122.18 48.1408L122.245 48.4226L122.309 48.8453L122.374 47.0841L122.568 47.178L122.632 47.5538H122.697L122.762 47.225L122.826 48.3287L123.02 46.9902L123.085 47.8121L123.149 46.8023L123.214 46.1918L123.278 48.2582L123.472 46.0744L123.537 46.2857L123.602 46.3092L123.666 45.816L123.731 46.3561L123.925 46.1683L123.989 45.1351L124.054 43.7966L124.118 44.3367L124.442 44.8298L124.506 44.6654L124.571 44.501L124.635 46.2857L124.829 47.3894L124.894 47.6242L124.958 48.2582L125.023 48.7044L125.088 47.7886L125.282 48.1878L125.346 48.8453H125.411L125.475 47.6946L125.54 48.6574L125.734 47.6007L125.798 46.9432L125.863 47.1546L125.928 48.1878L125.992 47.0606L126.186 48.6339L126.251 48.0704L126.38 49.6907L126.445 48.6574L126.638 48.54H126.703L126.768 48.9392L126.832 49.0331L126.897 46.9197L127.091 46.7084L127.155 46.7553L127.22 45.1585L127.285 45.5343L127.349 45.229L127.543 45.0176L127.608 45.2055L127.672 46.0039L127.737 45.5108L127.802 46.2153H127.995H128.06L128.125 46.4031L128.189 46.2857L128.254 47.1546L128.448 47.178L128.512 48.3522L128.577 47.9999L128.642 48.7044L128.706 50.63L128.9 49.9255L128.965 50.7943L129.029 50.8413L129.094 51.3579L129.158 51.1935L129.352 51.6397L129.417 52.1328L129.482 52.5555L129.546 49.8081L129.611 49.5498L129.805 48.2582L129.869 48.9157L129.934 47.4129L129.998 47.5303L130.063 48.1878L130.257 47.6007L130.322 47.3189L130.386 46.497L130.451 46.8493L130.515 45.4403L130.709 44.9707L130.774 45.0646L130.838 44.4306L130.903 47.6946L130.968 47.5538L131.162 47.2485L131.226 48.7044L131.291 48.9392L131.355 48.3522L131.42 48.7748L131.614 49.3619L131.679 49.5498L131.743 50.4421L131.808 49.8316L131.872 50.63L132.066 50.7474L132.131 50.9352L132.195 50.8178L132.26 50.3012L132.325 49.855L132.518 50.583L132.583 50.8883L132.648 51.217L132.712 51.945L132.777 52.1094L132.971 50.8883L133.035 51.0292L133.1 50.3951L133.165 51.1231L133.229 51.6867L133.423 51.7336L133.488 52.3677L133.552 52.2503L133.617 51.4519L133.682 51.8745L133.875 51.9685L133.94 51.6632L134.005 51.7806L134.069 50.7004L134.134 50.2777L134.328 49.902L134.392 49.4324H134.457L134.522 49.8316L134.586 48.6809L134.78 49.7376L134.845 50.3482L134.909 50.7239L134.974 51.0292L135.039 51.0761L135.232 51.898H135.297L135.362 51.8276L135.426 54.3402L135.491 53.941L135.685 53.8705L135.749 53.4244L135.814 53.8236L135.879 53.7531L135.943 54.2463L136.137 53.8236L136.202 54.4576L136.266 53.9645L136.331 54.9742L136.395 54.9507L136.589 54.6924L136.654 54.7394L136.719 53.9645L136.783 54.1758L136.848 54.622L137.042 54.5985L137.106 53.6827L137.171 54.5515L137.235 55.8196L137.3 56.1014L137.494 55.89L137.559 55.984L137.623 56.9468L137.688 57.6043L137.752 57.2755L137.946 57.346L138.011 57.1581L138.075 56.9937L138.14 55.5613L138.205 53.8236L138.399 53.8471L138.463 53.6827L138.528 53.988L138.592 52.0154L138.657 52.8843L138.851 52.3912L138.915 52.8843L138.98 52.6729L139.045 52.9312L139.109 53.26L139.303 53.988L139.368 53.8001L139.432 54.1054L139.497 53.4009L139.562 53.988L139.755 53.941L139.82 54.3637L139.885 54.9977L139.949 54.9507L140.014 55.1856L140.208 54.2228L140.272 54.7629L140.337 54.9507L140.402 54.9742L140.466 55.8196L140.66 56.571L140.725 56.9233L140.789 57.1346L140.854 57.2285L140.919 56.6415L141.112 57.252L141.177 56.9233H141.242L141.306 55.89L141.371 55.7491L141.565 56.3362L141.629 56.1014L141.823 57.7217L142.017 57.346L142.082 57.4399L142.211 55.7726L142.275 55.4674L142.469 55.0682L142.534 55.5613L142.599 54.9742L142.663 55.209L142.728 54.8803L142.922 55.7257L142.986 55.89L143.051 55.1151L143.115 54.9977L143.18 54.8333L143.374 54.622L143.439 54.1054L143.503 54.622L143.568 55.5378L143.632 56.1483L143.826 55.7726L143.891 55.6552L143.955 55.1386L144.02 54.7159L144.085 53.9645L144.279 53.7297L144.343 54.0114L144.408 54.3167L144.472 53.7062L144.537 54.7159L144.731 55.5378L144.795 56.0075L144.86 54.6924L144.925 55.984L144.989 56.3832L145.183 56.2892L145.248 56.6884L145.312 56.8763L145.377 56.3832H145.442L145.635 56.7354L145.7 56.9702L145.765 56.6415L145.829 55.7491L145.894 57.6982L146.088 57.1581H146.152L146.217 56.7119L146.282 56.8763L146.346 58.7079L146.54 58.5436L146.605 58.1678L146.669 58.614L146.734 59.2715L146.799 58.567L146.992 58.8488L147.057 58.8019L147.122 58.9193L147.186 57.0876L147.251 57.299L147.445 57.2285L147.509 57.4164L147.574 57.4399L147.639 57.0407H147.703L147.897 57.3929L147.962 57.4164L148.026 57.4869L148.091 57.1816L148.155 56.3127L148.349 56.5945L148.414 57.2285L148.479 57.4634L148.543 58.3792L148.608 58.4262L148.802 57.8861L148.866 57.5808L148.931 58.0504L148.995 58.2148L149.319 57.7686L149.383 57.9565L149.448 57.7921L149.512 57.933L149.706 58.3087L149.771 57.8626L149.835 58.1678L149.965 58.3087L150.159 58.4496L150.223 59.3185L150.288 59.1071L150.352 59.4124L150.417 57.3225L150.611 57.1111L150.675 56.3362L150.74 56.5476L150.805 55.7961L150.869 56.2658L151.063 56.5006L151.128 56.3362L151.192 56.0075L151.257 55.9135L151.322 55.4204L151.515 55.4908L151.58 55.5378L151.645 55.1386L151.709 55.209L151.774 55.1386L151.968 55.1856L152.032 55.6083L152.097 55.3969L152.162 54.622L152.226 55.5848L152.42 55.1386L152.485 54.3637H152.549L152.614 54.1289L152.679 54.1993L152.872 54.1758L152.937 54.6455L153.002 54.575L153.066 55.303L153.131 54.9038L153.325 54.9977L153.389 55.2795L153.454 55.2325L153.519 55.1151L153.583 55.303L153.777 55.7726L153.842 56.1483L153.906 55.7491L153.971 55.6317L154.035 54.9038L154.229 54.9507L154.294 54.9038L154.359 55.0916H154.423L154.488 54.9742L154.682 55.3969L154.746 55.209L154.811 54.1758L154.875 54.0819H154.94L155.134 53.988L155.199 53.5183L155.263 53.307L155.328 53.4009L155.392 53.0017L155.586 52.9078L155.651 52.8373L155.715 52.4851L155.78 52.2033L155.845 52.4146L156.039 52.7669L156.103 52.2268L156.168 51.7571L156.232 52.0389L156.297 52.3207L156.491 52.2972L156.555 51.7571L156.62 51.945L156.685 52.1094L156.749 52.3207L156.943 52.2503L157.008 51.8745L157.072 50.9352L157.137 50.6534L157.202 50.7239L157.395 49.8081L157.46 49.7141L157.525 49.5028L157.589 49.5263L157.654 49.6437L157.848 48.9157L157.912 48.6574L157.977 49.1506L158.042 47.2954L158.106 46.3561L158.3 46.3327L158.365 45.6986L158.429 46.0744H158.494L158.559 46.1213L158.752 45.8395L158.817 46.3561L158.882 46.4736L158.946 45.276L159.011 44.9942L159.205 44.9002L159.269 45.5577L159.334 44.6184L159.399 42.9747L159.463 43.2799L159.657 42.8338L159.722 41.0961L159.786 41.3779L159.851 41.8005L159.915 41.5892L160.109 40.8143L160.174 41.4483L160.239 42.0119L160.303 43.7261L160.368 41.8945L160.562 42.505L160.626 42.0119L160.691 42.3172L160.755 43.5148L160.82 44.595L161.014 43.867L161.079 43.7026L161.143 42.7164L161.208 42.3641L161.272 42.1997L161.466 42.505L161.531 43.5148L161.595 43.3504L161.66 41.3074L161.725 40.2037L161.919 39.7576L161.983 40.0628L162.048 39.5462L162.112 40.1098L162.177 38.2312L162.371 39.6401L162.435 38.7008L162.5 39.3584L162.565 39.194L162.629 38.8887L162.823 39.781L162.888 40.0628L162.952 40.3681L163.017 40.4386L163.082 38.6774L163.275 38.4895L163.34 38.7008L163.405 39.4758L163.469 39.5462L163.534 39.5932L163.728 39.3818L163.792 38.7008L163.857 37.2684L163.922 36.9631L163.986 37.7615L164.18 36.1413L164.245 37.8555L164.309 38.2077L164.374 38.7713L164.439 39.1001L164.632 38.7243L164.697 40.4151L164.762 39.0766L164.826 36.5639L164.891 36.47L165.085 36.1647L165.149 35.4368L165.214 35.5307L165.537 35.1785L165.602 34.5914L165.666 34.2861L165.795 32.7128L165.989 30.6229H166.054L166.119 29.2374L166.183 28.1572L166.248 28.9321L166.442 28.7677L166.506 28.392L166.571 28.2746L166.635 27.1475L166.7 25.0575L166.894 25.3628L166.959 24.9166L167.023 25.1514L167.088 25.5976L167.152 18.0128L167.346 18.8581L167.411 20.0088L167.476 20.7133L167.54 20.1732L167.605 19.9853L167.799 20.0792L167.863 21.3003L167.928 22.5449L167.992 21.9109L168.057 22.5684L168.251 19.4452L168.316 19.8444L168.38 20.1497L168.445 20.408L168.509 21.3708L168.703 21.8639L168.768 22.0048L168.832 21.2064L168.897 21.4882L168.962 19.8679H169.155L169.22 20.408L169.285 20.7367L169.349 20.2201L169.414 18.7877L169.608 18.5529L169.672 17.4492L169.737 16.6038L169.802 15.5706L169.866 13.5041L170.06 11.4846L170.125 9.01897L170.189 5.70793L170.254 6.45937L170.319 5.59052L170.512 5.28525L170.577 6.90554L170.642 6.01321L170.706 7.77439L170.771 9.79389L170.965 12.5179L171.029 13.2693L171.094 13.9503L171.159 13.7155L171.223 11.4142L171.417 11.1794L171.482 9.44165L171.546 9.3712L171.611 10.8741L171.934 11.2263L171.999 11.5316L172.063 9.74692L172.128 5.54356L172.322 5.16784L172.386 5.42614L172.451 5.73142L172.516 8.47887L172.58 10.5688L172.774 8.71369L172.839 8.24404L172.903 9.13638L172.968 9.72344L173.032 10.7567L173.226 10.7332L173.291 12.7996L173.356 14.279L173.42 18.318L173.679 17.1439L173.743 16.4864L173.808 18.5998L173.872 19.9853L173.937 18.4354L174.131 16.9561L174.196 18.7642L174.26 18.4354L174.325 22.0752L174.389 20.408L174.583 21.5351L174.648 17.6605L174.712 16.5099L174.777 16.7917L174.842 17.3787L175.036 13.8094L175.1 12.7996L175.165 11.5316L175.229 12.1891L175.294 13.645L175.488 13.1519L175.552 14.7957L175.617 16.8152L175.682 20.2201L175.746 18.3885L175.94 17.3318L176.005 18.9521L176.069 19.5156L176.134 18.6468L176.199 18.412L176.392 18.3885L176.457 18.318L176.522 19.5156L176.586 21.7934L176.651 19.8914L176.845 20.7367L176.909 18.1302L176.974 18.2946L177.039 18.1537L177.103 18.0832L177.297 16.7917L177.362 17.8484L177.426 16.1576L177.491 15.5001L177.556 16.0872L177.749 14.3965L177.814 12.8936L177.879 14.7017L177.943 15.2888L178.008 17.7545L178.202 15.1714L178.266 14.8426L178.331 14.4199L178.396 11.6255L178.46 12.0482L178.654 11.3203L178.719 11.6255L178.783 12.3065L178.848 14.2086L178.912 13.0345L179.106 15.3592L179.171 14.7252L179.236 14.8191L179.3 13.3632L179.365 13.5981L179.559 13.2693L179.623 13.7155L179.688 11.9308L179.752 11.9778L179.817 13.0814L180.011 13.4572L180.076 15.2888L180.14 17.1909L180.205 16.322L180.269 17.4961L180.463 16.1576L180.528 15.3827L180.592 15.0305L180.657 17.731L180.722 19.5626L180.916 23.4607L180.98 23.6251L181.045 21.77L181.109 19.6096L181.174 19.3043L181.368 18.318L181.432 18.7172L181.497 19.0695L181.562 18.5763L181.626 16.8856L181.82 17.0265L181.885 17.3318L181.949 16.9091L182.014 17.7545L182.079 19.3043L182.272 19.9853L182.337 20.2671L182.402 18.5763L182.466 20.1262L182.531 22.0752L182.725 18.9755L182.789 17.1909L182.854 17.0969L182.919 18.8112L182.983 17.1204L183.177 17.4727L183.242 18.1302L183.306 18.1067L183.371 17.1674L183.436 17.2848L183.629 18.7172L183.694 18.5059L183.759 19.2808L183.823 19.046L183.888 21.042L184.082 21.2299L184.146 21.2534L184.211 21.9109L184.276 22.4275L184.34 20.995L184.534 20.5019L184.599 21.2299L184.663 20.9011L184.728 20.1497L184.792 15.8524L184.986 14.4434L185.051 15.4062L185.116 15.8759L185.18 12.8701L185.245 14.5608L185.439 14.8426L185.503 13.7624L185.568 12.964L185.632 11.9308L185.697 11.5551L185.891 9.79389L185.956 8.47887L186.02 8.5728L186.085 8.78414L186.149 9.55906L186.343 8.71369L186.408 7.6335L186.472 7.53957L186.537 7.98574L186.602 8.00922L186.796 6.83509L186.86 7.2343L186.925 5.89579L186.989 6.43589L187.054 5.7549L187.248 5.73142L187.312 6.17758L187.377 6.43589L187.442 7.65698L187.506 12.3065L187.7 10.4514L187.765 11.7899L187.829 13.0814L187.894 13.1284L187.959 13.2693L188.152 13.9033L188.217 14.0442L188.282 12.9171L188.346 11.1089L188.411 11.015L188.605 11.6725L188.669 13.2928L188.734 12.5883L188.799 13.1989L189.057 13.5041L189.122 13.2928L189.186 12.7996L189.251 12.0247L189.509 12.2361L189.574 9.18334L189.639 9.1129L189.703 11.649L189.768 11.5081L189.962 12.0482L190.026 11.015L190.091 10.5923L190.156 12.1421L190.22 12.5413L190.414 12.1187L190.479 11.649L190.543 12.4239L190.608 12.1421L190.672 10.4514L190.866 10.5923L190.931 11.015L190.996 12.0482L191.06 12.33L191.125 12.6588L191.319 11.9543L191.383 12.6588L191.448 12.9171L191.512 18.1537L191.577 18.0832L191.771 16.1811L191.836 18.7172L191.9 19.1164L191.965 20.7602L192.029 19.4452L192.223 17.6605L192.288 17.4022L192.352 16.8386L192.417 15.8524L192.482 16.0872L192.676 14.7487L192.74 14.279L192.805 13.8564L192.869 14.7487L192.934 14.3495L193.128 12.0482L193.192 11.7195L193.257 11.4142L193.322 12.3065L193.386 13.645L193.58 13.3163L193.645 14.7722L193.709 13.7155L193.774 11.4142L193.839 15.9698L194.032 16.5099L194.097 16.322L194.162 15.4767L194.226 20.1027L194.291 19.5156L194.485 19.3747L194.549 18.2711L194.614 17.4961L194.679 17.1909L195.002 17.9423L195.066 20.3375L195.131 21.4647L195.196 22.3101L195.389 21.3708L195.454 21.1359L195.519 20.5724L195.583 21.0655H195.648L195.842 21.5351L195.906 21.6526L195.971 19.8679L196.036 19.0225L196.1 19.6096L196.294 20.0088L196.359 20.6898L196.423 21.3473L196.488 20.9011L196.552 19.2104L196.746 19.2339L196.811 19.6565L196.876 19.9618L196.94 20.9716L197.005 21.77L197.199 23.3903L197.263 24.7288L197.328 23.6016L197.392 22.4275L197.457 22.2161L197.651 21.6291L197.716 21.2768L197.78 21.8874L197.845 21.5351L197.909 20.7837L198.103 20.3375L198.168 20.2436L198.232 19.5156L198.297 17.9893L198.362 18.412L198.556 18.318L198.62 17.4492L198.685 17.0265L198.749 17.4492H198.814L199.008 16.9091L199.072 17.1909L199.137 17.5666L199.202 17.8249L199.266 17.1909L199.46 20.8072L199.525 20.7837L199.589 21.3238L199.654 20.6898L199.719 19.9853L199.912 19.3043L199.977 18.5059L200.042 18.5998L200.106 17.5666L200.171 19.046L200.365 20.4784L200.429 20.1497L200.494 19.5861L200.559 21.5351L200.623 15.5001L200.817 14.1851L200.882 15.641L200.946 15.9698L201.011 16.2046L201.076 16.8152L201.269 16.8856L201.334 17.0265L201.399 15.5706L201.463 15.7819L201.528 15.5941L201.722 15.1714L201.786 15.9933L201.851 15.6175L201.916 17.2378L201.98 16.6977L202.174 15.2653L202.239 14.9131L202.303 14.4904L202.368 14.5139H202.432L202.626 13.8798L202.691 14.1851L202.756 14.0677L202.82 15.9698L202.885 16.416L203.079 17.3787L203.143 17.9188L203.208 18.0362L203.273 16.8386L203.337 17.2144L203.531 15.8993L203.596 15.735L203.66 17.7545L203.725 17.1674L203.789 17.2613L203.983 17.6605L204.048 19.8209L204.113 19.4687L204.177 20.2906L204.242 20.3845L204.436 20.0088L204.5 20.6193L204.565 19.3043L204.629 19.727H204.694L204.888 17.4727L204.953 17.4492L205.017 16.7682L205.082 17.0265L205.146 17.9188L205.34 17.2144L205.405 17.2848L205.469 18.7407L205.534 19.8209L205.599 19.3043L205.793 18.5294L205.857 18.9286L205.922 18.3885L205.986 19.046L206.051 18.5294L206.245 17.3787L206.309 17.7545L206.374 17.0969L206.439 18.7642L206.503 18.318L206.697 19.2104L206.762 18.412L206.826 18.5059L206.891 18.4354L206.956 17.3083L207.149 18.7172L207.214 17.3083L207.279 18.2476L207.343 17.7545L207.408 16.9091L207.602 17.2848L207.666 15.7584L207.731 14.6313L207.796 14.96L207.86 14.279L208.054 14.1147L208.119 14.0912L208.183 13.8329L208.248 13.8564L208.313 12.0012L208.506 12.0952L208.571 11.7195L208.636 12.7762L208.7 12.7996L208.765 12.7057L208.959 13.1754L209.023 14.7252L209.088 16.0637L209.153 15.4767L209.217 16.0168L209.411 15.4297L209.476 14.96L209.54 14.6548L209.605 12.1656L209.669 12.3535L209.863 9.81737L209.928 9.58255L209.993 8.29101L210.057 8.59628L210.122 6.78813L210.316 6.83509L210.38 6.52982L210.445 6.22455L210.509 5.09739L210.574 6.01321L210.768 5.91928L210.833 5.68445L210.897 6.90554L210.962 6.74116L211.026 7.04644L211.22 8.29101L211.285 8.94852L211.349 8.85459L211.414 9.5121L211.479 5.30873L211.673 6.08365L211.737 6.38893L211.802 7.0934L211.866 2.32645L211.931 2.77262L212.125 2.3969L212.189 1.12885L212.254 2.37342L212.319 2.86655L212.383 2.91352L212.642 2.89003L212.706 1.95073L212.771 3.05441L212.836 4.93301L213.029 3.31272L213.094 1.5985L213.159 2.72566L213.223 4.08764L213.288 5.94276L213.482 4.4164L213.546 5.49659L213.611 4.13461L213.676 7.82136L213.74 7.44564L213.934 6.06017L213.999 7.91529L214.063 7.51609L214.128 7.58653L214.193 6.83509L214.386 8.54932L214.451 9.23031L214.516 9.13638L214.58 8.24404L214.645 7.86832L214.839 6.81161L214.903 9.3712L214.968 10.0757L215.033 10.4514L215.097 9.08941L215.291 8.50235L215.356 7.72743L215.42 7.53957L215.485 8.07967L215.549 6.78813H215.743L215.808 6.64723L215.873 5.23828L215.937 7.25778L216.002 7.21081L216.196 6.50634L216.26 4.86256L216.325 4.34595L216.389 5.614L216.454 6.36544L216.648 5.89579L216.713 6.10714L216.777 4.76863L216.842 4.36943L216.906 5.44963L217.1 6.01321L217.165 5.68445L217.229 5.26177L217.294 5.14435L217.359 6.295L217.553 7.4926L217.617 6.83509L217.682 6.64723L217.746 8.78414L217.811 8.99548L218.005 9.30076L218.069 10.3105L218.134 10.4279L218.199 10.0052L218.263 10.381L218.457 12.0482L218.522 11.4611L218.586 9.23031L218.651 8.99548L218.716 8.05618L218.909 7.44564L218.974 7.2343L219.039 7.79788L219.103 7.53957L219.168 6.81161L219.362 5.70793L219.426 6.50634L219.491 6.27151L219.556 6.81161L219.879 7.86832L219.943 8.76066L220.008 9.15986L220.073 8.19708L220.266 11.2498L220.331 12.0952L220.396 12.1421L220.46 11.9073L220.525 12.8701L220.783 12.5648L220.848 12.6588L220.913 12.7996L220.977 13.4806L221.171 13.0345L221.236 12.0482L221.3 11.9308L221.365 11.4846L221.429 11.7899L221.623 13.692L221.688 15.3827L221.753 16.4864L221.817 16.6977L221.882 17.6605L222.076 18.8581L222.14 18.318L222.205 17.9188L222.269 18.318L222.334 17.9658L222.528 17.8249L222.593 17.5431L222.657 18.4354L222.722 18.412L222.786 18.365L222.98 18.9521L223.045 19.1164L223.109 18.365L223.174 18.5763L223.239 17.5901L223.433 18.4354L223.497 18.365L223.562 18.1067L223.626 17.4022L223.691 17.4257L223.885 18.0362L223.949 17.2144L224.014 17.05L224.079 17.4727L224.143 17.5431L224.337 17.8014L224.402 19.4922L224.466 21.2768L224.531 21.9578L224.596 21.9343L224.789 21.1594L224.854 20.8776L224.919 20.4315L224.983 21.4647L225.048 21.9343L225.242 21.4882L225.306 21.8169L225.371 22.6153L225.436 22.0283L225.5 22.0048L225.694 22.8502L225.759 24.4939L225.823 24.0947L225.888 23.2494L225.953 25.9968L226.146 26.1142L226.211 26.9126L226.276 26.0438L226.34 26.9126L226.405 27.4997L226.599 27.4762L226.663 28.9086L226.728 29.1904L226.793 29.707L226.857 29.8479L227.051 28.6503L227.116 28.9321L227.18 27.5467H227.245L227.309 28.1102L227.503 28.6503L227.568 27.758L227.633 27.1709L227.697 26.9596L227.762 27.6876L227.956 28.0398L228.02 28.2277L228.085 28.6973L228.149 28.8147L228.214 28.8382L228.408 30.7872L228.473 32.8067L228.537 30.6463L228.602 29.12L228.666 30.7168L228.86 30.4585L228.925 30.2237L228.989 30.8812L229.054 31.5387L229.119 32.9946L229.313 31.9849L229.377 30.9281L229.442 31.6796L229.506 30.1297L229.571 31.4213L229.765 31.163L229.829 31.5622L229.894 32.1492L229.959 30.4585L230.023 31.3743L230.217 29.8245L230.282 28.486L230.346 27.711L230.411 28.3451L230.476 28.8147L230.669 27.758L230.734 27.9224L230.799 28.486L230.863 27.7345L230.928 27.124L231.122 27.7815L231.186 28.6503L231.251 29.2139L231.316 29.6366L231.38 28.8852L231.574 28.7677L231.639 28.0163L231.703 27.8519L231.768 29.2844L231.833 29.0026L232.026 27.6876L232.091 28.0398L232.156 28.4625L232.22 27.9224L232.285 25.3628L232.479 25.4802L232.543 25.9264L232.608 25.4802L232.673 26.0673L232.737 26.2551L232.931 25.1045L232.996 24.6113L233.06 25.1045L233.125 25.809L233.189 26.2082L233.383 26.2551L233.448 27.7815L233.513 29.3783L233.577 28.2277L233.642 28.6269L233.836 28.392L233.9 27.3118L233.965 27.8519L234.029 29.5192L234.094 29.9888L234.288 31.2334L234.353 30.1767L234.417 29.167L234.482 29.5192L234.546 30.1297L234.74 29.801L234.805 29.4957L234.869 29.0026L234.934 28.4625L234.999 27.7345L235.193 28.6503L235.257 28.1337L235.322 27.6171L235.386 29.4722L235.451 28.8147L235.645 28.6269L235.71 29.0965L235.774 29.4722L235.839 29.707L235.903 29.5896L236.226 30.2941L236.291 30.9516L236.356 31.9144" stroke="#7CB5EC" stroke-linecap="round" stroke-linejoin="round"/>
</svg>
